<svg width="217" height="154" viewBox="0 0 217 154" version="1.1" xmlns="http://www.w3.org/2000/svg" xmlns:xlink="http://www.w3.org/1999/xlink">
<title>Team</title>
<desc>Created using Figma</desc>
<g id="Canvas" transform="translate(312 396)">
<g id="Team">
<g id="Mask Group">
<mask id="mask0_alpha" mask-type="alpha">
<g id="Rectangle 4">
<use xlink:href="#path0_fill" transform="translate(-319 -401)" fill="#C4C4C4"/>
</g>
</mask>
<g id="&#208;&#168;&#208;&#181;&#209;&#143;" mask="url(#mask0_alpha)">
<use xlink:href="#path1_fill" transform="translate(-276 -333)" fill="#FFFFFF"/>
<mask id="mask1_outline_ins">
<use xlink:href="#path1_fill" fill="white" transform="translate(-276 -333)"/>
</mask>
<g mask="url(#mask1_outline_ins)">
<use xlink:href="#path2_stroke_2x" transform="translate(-276 -333)" fill="#0093D3"/>
</g>
</g>
<g id="&#208;&#167;&#208;&#181;&#208;&#187;&#208;&#190;&#208;&#178;&#208;&#181;&#208;&#186;" mask="url(#mask0_alpha)">
<g id="&#208;&#155;&#208;&#184;&#209;&#134;&#208;&#190;">
<g id="Ellipse 3">
<use xlink:href="#path3_fill" transform="matrix(-1 -1.66533e-16 0.005868 0.999983 -250.37 -351)" fill="#FFFFFF"/>
<mask id="mask2_outline_ins">
<use xlink:href="#path3_fill" fill="white" transform="matrix(-1 -1.66533e-16 0.005868 0.999983 -250.37 -351)"/>
</mask>
<g mask="url(#mask2_outline_ins)">
<use xlink:href="#path4_stroke_2x" transform="matrix(-1 -1.66533e-16 0.005868 0.999983 -250.37 -351)" fill="#0093D3"/>
</g>
</g>
<g id="Ellipse 3">
<use xlink:href="#path3_fill" transform="matrix(-1 -1.66533e-16 0.005868 0.999983 -279.448 -351)" fill="#FFFFFF"/>
<mask id="mask3_outline_ins">
<use xlink:href="#path3_fill" fill="white" transform="matrix(-1 -1.66533e-16 0.005868 0.999983 -279.448 -351)"/>
</mask>
<g mask="url(#mask3_outline_ins)">
<use xlink:href="#path4_stroke_2x" transform="matrix(-1 -1.66533e-16 0.005868 0.999983 -279.448 -351)" fill="#0093D3"/>
</g>
</g>
<g id="&#208;&#147;&#208;&#190;&#208;&#187;&#208;&#190;&#208;&#178;&#208;&#176;">
<use xlink:href="#path5_fill" transform="translate(-283 -366)" fill="#FFFFFF"/>
<mask id="mask4_outline_ins">
<use xlink:href="#path5_fill" fill="white" transform="translate(-283 -366)"/>
</mask>
<g mask="url(#mask4_outline_ins)">
<use xlink:href="#path6_stroke_2x" transform="translate(-283 -366)" fill="#0093D3"/>
</g>
</g>
<g id="Ellipse 4">
<use xlink:href="#path7_fill" transform="translate(-278 -348)" fill="#0093D3"/>
</g>
<g id="Ellipse 4">
<use xlink:href="#path7_fill" transform="translate(-262.058 -348)" fill="#0093D3"/>
</g>
<g id="Vector 23">
<use xlink:href="#path8_stroke" transform="translate(-269.149 -346.5)" fill="#0093D3"/>
</g>
<g id="Line 3">
<use xlink:href="#path9_stroke" transform="matrix(1 -2.44929e-16 2.44929e-16 1 -279 -350)" fill="#0093D3"/>
</g>
<g id="Line 3">
<use xlink:href="#path9_stroke" transform="matrix(1 -2.44929e-16 2.44929e-16 1 -263 -350)" fill="#0093D3"/>
</g>
<g id="Vector 24">
<use xlink:href="#path10_stroke" transform="translate(-275 -336)" fill="#0093D3"/>
</g>
</g>
<g id="Union">
<use xlink:href="#path11_fill" transform="translate(-302.521 -319)" fill="#C2EAFF"/>
<use xlink:href="#path12_stroke" transform="translate(-302.521 -319)" fill="#0093D3"/>
</g>
<g id="Line 2">
<use xlink:href="#path13_stroke" transform="matrix(5.8681e-17 1 -1 6.38946e-17 -247.896 -298)" fill="#0093D3"/>
</g>
<g id="Rectangle 5">
<use xlink:href="#path14_fill" transform="translate(-303 -294.045)" fill="#FFFFFF"/>
<mask id="mask5_outline_ins">
<use xlink:href="#path14_fill" fill="white" transform="translate(-303 -294.045)"/>
</mask>
<g mask="url(#mask5_outline_ins)">
<use xlink:href="#path15_stroke_2x" transform="translate(-303 -294.045)" fill="#0093D3"/>
</g>
</g>
<g id="Rectangle 5">
<use xlink:href="#path16_fill" transform="matrix(-1 0 0 1 -234 -294.045)" fill="#FFFFFF"/>
<mask id="mask6_outline_ins">
<use xlink:href="#path16_fill" fill="white" transform="matrix(-1 0 0 1 -234 -294.045)"/>
</mask>
<g mask="url(#mask6_outline_ins)">
<use xlink:href="#path17_stroke_2x" transform="matrix(-1 0 0 1 -234 -294.045)" fill="#0093D3"/>
</g>
</g>
<g id="Line 2">
<use xlink:href="#path18_stroke" transform="matrix(2.6966e-17 1 -1 5.79247e-17 -289.104 -298)" fill="#0093D3"/>
</g>
<g id="Union">
<use xlink:href="#path19_fill" transform="matrix(-1 0 0 1 -252 -372)" fill="#6FBCFF"/>
<use xlink:href="#path20_stroke" transform="matrix(-1 0 0 1 -252 -372)" fill="#0093D3"/>
</g>
</g>
</g>
<g id="Mask Group">
<mask id="mask7_alpha" mask-type="alpha">
<g id="Rectangle 4">
<use xlink:href="#path0_fill" transform="translate(-195 -402)" fill="#C4C4C4"/>
</g>
</mask>
<g id="&#208;&#167;&#208;&#181;&#208;&#187;&#208;&#190;&#208;&#178;&#208;&#181;&#208;&#186;" mask="url(#mask7_alpha)">
<g id="Vector 33">
<use xlink:href="#path21_fill" transform="translate(-164 -369.569)" fill="#6FBCFF"/>
<use xlink:href="#path22_stroke" transform="translate(-164 -369.569)" fill="#0093D3"/>
</g>
<g id="&#208;&#168;&#208;&#181;&#209;&#143;">
<use xlink:href="#path23_fill" transform="translate(-152 -327)" fill="#FFFFFF"/>
<mask id="mask8_outline_ins">
<use xlink:href="#path23_fill" fill="white" transform="translate(-152 -327)"/>
</mask>
<g mask="url(#mask8_outline_ins)">
<use xlink:href="#path24_stroke_2x" transform="translate(-152 -327)" fill="#0093D3"/>
</g>
</g>
<g id="&#208;&#155;&#208;&#184;&#209;&#134;&#208;&#190;">
<g id="Ellipse 3">
<use xlink:href="#path25_fill" transform="matrix(-0.999304 -0.0372917 -0.0314272 0.999506 -128.032 -349.979)" fill="#FFFFFF"/>
<mask id="mask9_outline_ins">
<use xlink:href="#path25_fill" fill="white" transform="matrix(-0.999304 -0.0372917 -0.0314272 0.999506 -128.032 -349.979)"/>
</mask>
<g mask="url(#mask9_outline_ins)">
<use xlink:href="#path26_stroke_2x" transform="matrix(-0.999304 -0.0372917 -0.0314272 0.999506 -128.032 -349.979)" fill="#0093D3"/>
</g>
</g>
<g id="Ellipse 3">
<use xlink:href="#path25_fill" transform="matrix(-0.999304 -0.0372917 -0.0314272 0.999506 -156.783 -349.776)" fill="#FFFFFF"/>
<mask id="mask10_outline_ins">
<use xlink:href="#path25_fill" fill="white" transform="matrix(-0.999304 -0.0372917 -0.0314272 0.999506 -156.783 -349.776)"/>
</mask>
<g mask="url(#mask10_outline_ins)">
<use xlink:href="#path26_stroke_2x" transform="matrix(-0.999304 -0.0372917 -0.0314272 0.999506 -156.783 -349.776)" fill="#0093D3"/>
</g>
</g>
<g id="&#208;&#147;&#208;&#190;&#208;&#187;&#208;&#190;&#208;&#178;&#208;&#176;">
<use xlink:href="#path27_fill" transform="translate(-160 -365)" fill="#FFFFFF"/>
<mask id="mask11_outline_ins">
<use xlink:href="#path27_fill" fill="white" transform="translate(-160 -365)"/>
</mask>
<g mask="url(#mask11_outline_ins)">
<use xlink:href="#path28_stroke_2x" transform="translate(-160 -365)" fill="#0093D3"/>
</g>
</g>
<g id="Ellipse 4">
<use xlink:href="#path7_fill" transform="translate(-155 -348)" fill="#0093D3"/>
</g>
<g id="Ellipse 4">
<use xlink:href="#path7_fill" transform="translate(-139.058 -348)" fill="#0093D3"/>
</g>
<g id="Vector 23">
<use xlink:href="#path29_stroke" transform="matrix(-1 0 0 1 -144.338 -345)" fill="#0093D3"/>
</g>
<g id="Vector 24">
<use xlink:href="#path30_stroke" transform="translate(-151 -335)" fill="#0093D3"/>
</g>
<g id="Vector 29">
<use xlink:href="#path31_stroke" transform="translate(-156 -351)" fill="#0093D3"/>
</g>
<g id="Vector 29">
<use xlink:href="#path32_stroke" transform="translate(-140 -350)" fill="#0093D3"/>
</g>
</g>
<g id="Ellipse 5">
<use xlink:href="#path33_fill" transform="translate(-155 -342)" fill="#C2EAFF"/>
</g>
<g id="Ellipse 5">
<use xlink:href="#path33_fill" transform="translate(-139 -342)" fill="#C2EAFF"/>
</g>
<g id="Union">
<use xlink:href="#path34_fill" transform="translate(-177 -318)" fill="#8CD8FF"/>
<use xlink:href="#path35_stroke" transform="translate(-177 -318)" fill="#0093D3"/>
</g>
<g id="Line 2">
<use xlink:href="#path36_stroke" transform="matrix(6.12323e-17 1 -1 6.12323e-17 -126 -298)" fill="#0093D3"/>
</g>
<g id="Line 2">
<use xlink:href="#path37_stroke" transform="matrix(5.43046e-17 1 -1 6.90439e-17 -165 -298)" fill="#0093D3"/>
</g>
<g id="Vector 34">
<use xlink:href="#path38_fill" transform="translate(-164 -372.876)" fill="#6FBCFF"/>
<use xlink:href="#path39_stroke" transform="translate(-164 -372.876)" fill="#0093D3"/>
</g>
<g id="&#208;&#154;&#208;&#190;&#209;&#132;&#208;&#181;">
<g id="Vector 35">
<use xlink:href="#path40_fill" transform="translate(-156.7 -265.5)" fill="#FFFFFF"/>
<use xlink:href="#path41_stroke" transform="translate(-156.7 -265.5)" fill="#0093D3"/>
</g>
<g id="Vector 36">
<use xlink:href="#path42_fill" transform="translate(-158 -269)" fill="#0093D3"/>
<use xlink:href="#path43_stroke" transform="translate(-158 -269)" fill="#0093D3"/>
</g>
</g>
<g id="Vector 25">
<use xlink:href="#path44_fill" transform="matrix(6.18413e-17 -1 1 6.30648e-17 -156.93 -251.05)" fill="#FFFFFF"/>
<use xlink:href="#path45_stroke" transform="matrix(6.18413e-17 -1 1 6.30648e-17 -156.93 -251.05)" fill="#0093D3"/>
</g>
<g id="Vector 26">
<use xlink:href="#path46_fill" transform="matrix(-0.107931 -0.994158 0.994158 -0.107931 -140 -250)" fill="#8CD8FF"/>
<use xlink:href="#path47_stroke" transform="matrix(-0.107931 -0.994158 0.994158 -0.107931 -140 -250)" fill="#0093D3"/>
</g>
<g id="Rectangle 7">
<use xlink:href="#path48_fill" transform="translate(-125.5 -290)" fill="#8CD8FF"/>
</g>
</g>
</g>
<g id="Mask Group">
<mask id="mask12_alpha" mask-type="alpha">
<g id="Rectangle 4">
<use xlink:href="#path0_fill" transform="translate(-253 -402)" fill="#C4C4C4"/>
</g>
</mask>
<g id="&#208;&#167;&#208;&#181;&#208;&#187;&#208;&#190;&#208;&#178;&#208;&#181;&#208;&#186;" mask="url(#mask12_alpha)">
<g id="&#208;&#155;&#208;&#184;&#209;&#134;&#208;&#190;">
<g id="Vector 22">
<use xlink:href="#path49_fill" transform="matrix(0.999221 0.0394581 -0.0387098 0.99925 -201.048 -373.737)" fill="#6FBCFF"/>
<use xlink:href="#path50_stroke" transform="matrix(0.999221 0.0394581 -0.0387098 0.99925 -201.048 -373.737)" fill="#0093D3"/>
</g>
<g id="Ellipse 3">
<use xlink:href="#path51_fill" transform="matrix(0.965484 -0.260463 0.255842 0.966719 -222.124 -353.394)" fill="#FFFFFF"/>
<mask id="mask13_outline_ins">
<use xlink:href="#path51_fill" fill="white" transform="matrix(0.965484 -0.260463 0.255842 0.966719 -222.124 -353.394)"/>
</mask>
<g mask="url(#mask13_outline_ins)">
<use xlink:href="#path52_stroke_2x" transform="matrix(0.965484 -0.260463 0.255842 0.966719 -222.124 -353.394)" fill="#0093D3"/>
</g>
</g>
<g id="Ellipse 3">
<use xlink:href="#path53_fill" transform="matrix(-0.945319 -0.326148 -0.320595 0.947216 -182.437 -353.277)" fill="#FFFFFF"/>
<mask id="mask14_outline_ins">
<use xlink:href="#path53_fill" fill="white" transform="matrix(-0.945319 -0.326148 -0.320595 0.947216 -182.437 -353.277)"/>
</mask>
<g mask="url(#mask14_outline_ins)">
<use xlink:href="#path54_stroke_2x" transform="matrix(-0.945319 -0.326148 -0.320595 0.947216 -182.437 -353.277)" fill="#0093D3"/>
</g>
</g>
<g id="&#208;&#168;&#208;&#181;&#209;&#143;">
<use xlink:href="#path55_fill" transform="translate(-209.28 -328.918)" fill="#FFFFFF"/>
<mask id="mask15_outline_ins">
<use xlink:href="#path55_fill" fill="white" transform="translate(-209.28 -328.918)"/>
</mask>
<g mask="url(#mask15_outline_ins)">
<use xlink:href="#path56_stroke_2x" transform="translate(-209.28 -328.918)" fill="#0093D3"/>
</g>
</g>
<g id="&#208;&#147;&#208;&#190;&#208;&#187;&#208;&#190;&#208;&#178;&#208;&#176;">
<use xlink:href="#path57_fill" transform="translate(-217 -370)" fill="#FFFFFF"/>
<mask id="mask16_outline_ins">
<use xlink:href="#path57_fill" fill="white" transform="translate(-217 -370)"/>
</mask>
<g mask="url(#mask16_outline_ins)">
<use xlink:href="#path58_stroke_2x" transform="translate(-217 -370)" fill="#0093D3"/>
</g>
</g>
<g id="Vector 27">
<use xlink:href="#path59_fill" transform="translate(-208.752 -369.475)" fill="#6FBCFF"/>
<use xlink:href="#path60_stroke" transform="translate(-208.752 -369.475)" fill="#0093D3"/>
</g>
<g id="Vector 21">
<use xlink:href="#path61_fill" transform="matrix(0.997332 -0.0729926 0.0716133 0.997432 -223 -374.803)" fill="#6FBCFF"/>
<use xlink:href="#path62_stroke" transform="matrix(0.997332 -0.0729926 0.0716133 0.997432 -223 -374.803)" fill="#0093D3"/>
</g>
<g id="Ellipse 4">
<use xlink:href="#path7_fill" transform="translate(-212 -351)" fill="#0093D3"/>
</g>
<g id="Ellipse 4">
<use xlink:href="#path7_fill" transform="translate(-196.058 -351)" fill="#0093D3"/>
</g>
<g id="Vector 23">
<use xlink:href="#path63_stroke" transform="translate(-204.003 -348.229)" fill="#0093D3"/>
</g>
<g id="Vector 24">
<use xlink:href="#path64_stroke" transform="translate(-208 -337)" fill="#0093D3"/>
</g>
<g id="Vector 29">
<use xlink:href="#path31_stroke" transform="translate(-213 -353)" fill="#0093D3"/>
</g>
<g id="Vector 29">
<use xlink:href="#path32_stroke" transform="translate(-197 -353)" fill="#0093D3"/>
</g>
</g>
<g id="Vector 25">
<use xlink:href="#path65_stroke" transform="matrix(0.999585 -0.0288137 0.0288137 0.999585 -250 -394.556)" fill="#0093D3"/>
</g>
<g id="Union">
<use xlink:href="#path66_fill" transform="translate(-252.639 -371)" fill="#C2EAFF"/>
<use xlink:href="#path67_stroke" transform="translate(-252.639 -371)" fill="#0093D3"/>
</g>
<g id="Line 2">
<use xlink:href="#path68_stroke" transform="matrix(6.12323e-17 1 -1 6.12323e-17 -182.5 -297.5)" fill="#0093D3"/>
</g>
</g>
</g>
<g id="Line">
<use xlink:href="#path69_stroke" transform="translate(-312 -242)" fill="#0093D3"/>
</g>
</g>
</g>
<defs>
<path id="path0_fill" d="M 0 0L 92 0L 92 159L 0 159L 0 0Z"/>
<path id="path1_fill" d="M 0 0L 15 0L 15 18L 0 18L 0 0Z"/>
<path id="path2_stroke_2x" d="M 0 0L 0 -1L -1 -1L -1 0L 0 0ZM 15 0L 16 0L 16 -1L 15 -1L 15 0ZM 15 18L 15 19L 16 19L 16 18L 15 18ZM 0 18L -1 18L -1 19L 0 19L 0 18ZM 0 1L 15 1L 15 -1L 0 -1L 0 1ZM 14 0L 14 18L 16 18L 16 0L 14 0ZM 15 17L 0 17L 0 19L 15 19L 15 17ZM 1 18L 1 0L -1 0L -1 18L 1 18Z"/>
<path id="path3_fill" d="M 7.55195 4.73116C 7.55195 7.34411 5.86139 9.46232 3.77598 9.46232C 1.69056 9.46232 0 7.34411 0 4.73116C 0 2.11821 1.69056 0 3.77598 0C 5.86139 0 7.55195 2.11821 7.55195 4.73116Z"/>
<path id="path4_stroke_2x" d="M 6.55195 4.73116C 6.55195 7.014 5.11048 8.46232 3.77598 8.46232L 3.77598 10.4623C 6.6123 10.4623 8.55195 7.67422 8.55195 4.73116L 6.55195 4.73116ZM 3.77598 8.46232C 2.44147 8.46232 1 7.014 1 4.73116L -1 4.73116C -1 7.67422 0.939656 10.4623 3.77598 10.4623L 3.77598 8.46232ZM 1 4.73116C 1 2.44833 2.44147 1 3.77598 1L 3.77598 -1C 0.939656 -1 -1 1.7881 -1 4.73116L 1 4.73116ZM 3.77598 1C 5.11048 1 6.55195 2.44833 6.55195 4.73116L 8.55195 4.73116C 8.55195 1.7881 6.6123 -1 3.77598 -1L 3.77598 1Z"/>
<path id="path5_fill" d="M 0 13C 0 5.8203 5.8203 0 13 0L 16 0C 23.1797 0 29 5.8203 29 13L 29 26C 29 33.1797 23.1797 39 16 39L 13 39C 5.8203 39 0 33.1797 0 26L 0 13Z"/>
<path id="path6_stroke_2x" d="M 13 1L 16 1L 16 -1L 13 -1L 13 1ZM 28 13L 28 26L 30 26L 30 13L 28 13ZM 16 38L 13 38L 13 40L 16 40L 16 38ZM 1 26L 1 13L -1 13L -1 26L 1 26ZM 13 -1C 5.26801 -1 -1 5.26801 -1 13L 1 13C 1 6.37258 6.37258 1 13 1L 13 -1ZM 16 1C 22.6274 1 28 6.37258 28 13L 30 13C 30 5.26801 23.732 -1 16 -1L 16 1ZM 28 26C 28 32.6274 22.6274 38 16 38L 16 40C 23.732 40 30 33.732 30 26L 28 26ZM 13 38C 6.37258 38 1 32.6274 1 26L -1 26C -1 33.732 5.26801 40 13 40L 13 38Z"/>
<path id="path7_fill" d="M 3.2283 1.59836C 3.2283 2.48111 2.50562 3.19672 1.61415 3.19672C 0.722679 3.19672 0 2.48111 0 1.59836C 0 0.71561 0.722679 0 1.61415 0C 2.50562 0 3.2283 0.71561 3.2283 1.59836Z"/>
<path id="path8_stroke" d="M 1.1458 0.0587407C 1.17824 -0.215489 0.982232 -0.464096 0.708002 -0.496538C 0.433772 -0.528979 0.185166 -0.332971 0.152724 -0.0587407L 1.1458 0.0587407ZM 0 5.48823L -0.496538 5.42949C -0.514685 5.5829 -0.460908 5.73608 -0.350848 5.84447C -0.240789 5.95286 -0.0868066 6.0043 0.0663038 5.98382L 0 5.48823ZM 3.71557 5.49558C 3.98927 5.45897 4.18146 5.2074 4.14485 4.9337C 4.10823 4.65999 3.85666 4.4678 3.58296 4.50442L 3.71557 5.49558ZM 0.152724 -0.0587407L -0.496538 5.42949L 0.496538 5.54697L 1.1458 0.0587407L 0.152724 -0.0587407ZM 0.0663038 5.98382L 3.71557 5.49558L 3.58296 4.50442L -0.0663038 4.99265L 0.0663038 5.98382Z"/>
<path id="path9_stroke" d="M 0 0L 5 0L 5 -1L 0 -1L 0 0Z"/>
<path id="path10_stroke" d="M 0.295401 -0.403408C 0.0726046 -0.566554 -0.240263 -0.518197 -0.403408 -0.295401C -0.566554 -0.0726046 -0.518197 0.240263 -0.295401 0.403408L 0.295401 -0.403408ZM 8 2L 7.90978 2.49179L 7.95452 2.5L 8 2.5L 8 2ZM 13.2821 0.412801C 13.5101 0.256987 13.5686 -0.0541431 13.4128 -0.282127C 13.257 -0.51011 12.9459 -0.568615 12.7179 -0.412801L 13.2821 0.412801ZM -0.295401 0.403408C -0.111172 0.538312 0.165097 0.656092 0.452009 0.760009C 0.748845 0.867356 1.12134 0.981736 1.52554 1.09398C 2.33068 1.31736 3.3138 1.5484 4.25689 1.75483C 5.20026 1.96129 6.11474 2.1458 6.79035 2.27808C 7.12861 2.34431 7.40866 2.39777 7.60328 2.43452C 7.70079 2.45293 7.77746 2.46726 7.8294 2.47692C 7.85547 2.48176 7.87557 2.48549 7.88901 2.48797C 7.89577 2.48921 7.90097 2.49017 7.9044 2.4908C 7.90614 2.49112 7.90748 2.49137 7.90836 2.49153C 7.90881 2.49161 7.90916 2.49168 7.90939 2.49172C 7.90951 2.49174 7.90961 2.49176 7.90967 2.49177C 7.90974 2.49179 7.90978 2.49179 8 2C 8.09022 1.50821 8.09021 1.50821 8.09017 1.5082C 8.09013 1.50819 8.09006 1.50818 8.08997 1.50816C 8.08977 1.50812 8.08948 1.50807 8.08908 1.508C 8.08825 1.50785 8.08705 1.50762 8.08541 1.50732C 8.08207 1.50671 8.07717 1.50581 8.0706 1.50459C 8.05737 1.50215 8.03788 1.49854 8.01223 1.49377C 7.96072 1.48419 7.8854 1.47012 7.7888 1.45188C 7.59519 1.41532 7.31845 1.36249 6.98249 1.29671C 6.30969 1.16499 5.40606 0.982697 4.4707 0.777956C 3.53506 0.573185 2.57881 0.348628 1.793 0.130408C 1.40173 0.0218498 1.06585 -0.0810681 0.792552 -0.180219C 0.50933 -0.2828 0.353702 -0.360717 0.295401 -0.403408L -0.295401 0.403408ZM 8 2.5C 11.1895 2.5 12.5261 0.929489 13.2821 0.412801L 12.7179 -0.412801C 11.8108 0.207123 10.7975 1.5 8 1.5L 8 2.5Z"/>
<path id="path11_fill" fill-rule="evenodd" d="M 0 30L 11.5208 30L 11.5208 73C 11.5208 77.4183 15.1026 81 19.5208 81L 48.5208 81C 52.9391 81 56.5208 77.4183 56.5208 73L 56.5208 28L 68.0417 28L 68.0417 14C 68.0417 1.5 51.7186 0.000671387 48.7666 0.000671387L 48.7673 0.00372314C 48.6854 0.00125122 48.6033 0 48.5208 0L 19.5208 0C 19.4839 0 19.447 0.000274658 19.4102 0.000762939C 16.1811 0.00244141 0 0.165283 0 16L 0 30Z"/>
<path id="path12_stroke" d="M 11.5208 30L 12.0208 30L 12.0208 29.5L 11.5208 29.5L 11.5208 30ZM 0 30L -0.5 30L -0.5 30.5L 0 30.5L 0 30ZM 56.5208 28L 56.5208 27.5L 56.0208 27.5L 56.0208 28L 56.5208 28ZM 68.0417 28L 68.0417 28.5L 68.5417 28.5L 68.5417 28L 68.0417 28ZM 48.7666 0.000671387L 48.7666 -0.499329L 48.1416 -0.499329L 48.2788 0.110427L 48.7666 0.000671387ZM 48.7673 0.00372314L 48.7522 0.503495L 49.3966 0.522961L 49.2551 -0.106033L 48.7673 0.00372314ZM 19.4102 0.000762939L 19.4104 0.500803L 19.4168 0.500719L 19.4102 0.000762939ZM 11.5208 29.5L 0 29.5L 0 30.5L 11.5208 30.5L 11.5208 29.5ZM 12.0208 73L 12.0208 30L 11.0208 30L 11.0208 73L 12.0208 73ZM 19.5208 80.5C 15.3787 80.5 12.0208 77.1421 12.0208 73L 11.0208 73C 11.0208 77.6944 14.8264 81.5 19.5208 81.5L 19.5208 80.5ZM 48.5208 80.5L 19.5208 80.5L 19.5208 81.5L 48.5208 81.5L 48.5208 80.5ZM 56.0208 73C 56.0208 77.1421 52.663 80.5 48.5208 80.5L 48.5208 81.5C 53.2153 81.5 57.0208 77.6944 57.0208 73L 56.0208 73ZM 56.0208 28L 56.0208 73L 57.0208 73L 57.0208 28L 56.0208 28ZM 56.5208 28.5L 68.0417 28.5L 68.0417 27.5L 56.5208 27.5L 56.5208 28.5ZM 68.5417 28L 68.5417 14L 67.5417 14L 67.5417 28L 68.5417 28ZM 68.5417 14C 68.5417 7.46896 64.2535 3.83222 59.7107 1.8544C 55.1783 -0.118913 50.286 -0.499329 48.7666 -0.499329L 48.7666 0.500671C 50.1992 0.500671 54.9444 0.86992 59.3116 2.77127C 63.6683 4.66812 67.5417 8.03104 67.5417 14L 68.5417 14ZM 48.2788 0.110427L 48.2795 0.113479L 49.2551 -0.106033L 49.2544 -0.109085L 48.2788 0.110427ZM 48.5208 0.5C 48.5995 0.499986 48.6741 0.501122 48.7522 0.503495L 48.7824 -0.496049C 48.6968 -0.49862 48.6071 -0.499986 48.5208 -0.5L 48.5208 0.5ZM 19.5208 0.5L 48.5208 0.5L 48.5208 -0.5L 19.5208 -0.5L 19.5208 0.5ZM 19.4168 0.500719C 19.4522 0.500248 19.4858 0.499997 19.5208 0.5L 19.5208 -0.5C 19.482 -0.499997 19.4418 -0.499699 19.4036 -0.499193L 19.4168 0.500719ZM 0.5 16C 0.5 8.30791 4.40246 4.47019 8.70091 2.51825C 13.0509 0.530966 17.7979 0.501597 19.4104 0.500763L 19.4099 -0.499237C 17.7934 -0.498393 12.8352 -0.445502 8.28744 1.60773C 3.68808 3.69632 -0.5 7.85737 -0.5 16L 0.5 16ZM 0.5 30L 0.5 16L -0.5 16L -0.5 30L 0.5 30Z"/>
<path id="path13_stroke" d="M 0 -0.5C -0.276142 -0.5 -0.5 -0.276142 -0.5 0C -0.5 0.276142 -0.276142 0.5 0 0.5L 0 -0.5ZM 5 0.5C 5.27614 0.5 5.5 0.276142 5.5 0C 5.5 -0.276142 5.27614 -0.5 5 -0.5L 5 0.5ZM 0 0.5L 5 0.5L 5 -0.5L 0 -0.5L 0 0.5Z"/>
<path id="path14_fill" d="M 0 0.0448853C 0 0.0448853 3.88023 0.139153 6.5 0.0448888C 9.30689 -0.0561089 14.375 0.0448853 14.375 0.0448853C 14.375 0.0448853 14.375 16.5449 14.375 27.5449L 14.375 54.5449L 0 54.5449L 0 26.5449C 4.14252e-06 16.0449 0 0.0448853 0 0.0448853Z"/>
<path id="path15_stroke_2x" d="M 0 0.0448853L 0.0242873 -0.95482L -1 -0.979704L -1 0.0448855L 0 0.0448853ZM 14.375 0.0448853L 15.375 0.0448853L 15.375 -0.935386L 14.3949 -0.954916L 14.375 0.0448853ZM 14.375 54.5449L 14.375 55.5449L 15.375 55.5449L 15.375 54.5449L 14.375 54.5449ZM 0 54.5449L -1 54.5449L -1 55.5449L 0 55.5449L 0 54.5449ZM 6.5 0.0448888L 6.53595 1.04424L 6.5 0.0448888ZM 0 26.5449L -1 26.5449L 0 26.5449ZM 14.375 53.5449L 0 53.5449L 0 55.5449L 14.375 55.5449L 14.375 53.5449ZM 0 0.0448853C -0.0242873 1.04459 -0.0242526 1.04459 -0.0242032 1.04459C -0.0241669 1.04459 -0.0241027 1.04459 -0.0240303 1.0446C -0.0238989 1.0446 -0.0236819 1.0446 -0.0234196 1.04461C -0.0229216 1.04462 -0.0221353 1.04464 -0.0211439 1.04467C -0.0192147 1.04471 -0.016248 1.04478 -0.0124275 1.04487C -0.00489465 1.04505 0.00649785 1.04532 0.0212547 1.04566C 0.0505478 1.04633 0.0942318 1.04731 0.150329 1.04852C 0.262065 1.05092 0.425531 1.05427 0.629025 1.05798C 1.03503 1.06536 1.60649 1.07427 2.2585 1.08019C 3.56057 1.09201 5.20809 1.09186 6.53595 1.04424L 6.46404 -0.954464C 5.17213 -0.907817 3.56965 -0.90797 2.27667 -0.919723C 1.63116 -0.92558 1.06882 -0.934351 0.665414 -0.941693C 0.464203 -0.945354 0.304059 -0.948634 0.193362 -0.951017C 0.138242 -0.952203 0.0960035 -0.953153 0.0671781 -0.953815C 0.0528757 -0.954144 0.04216 -0.954395 0.0348495 -0.954568C 0.0312483 -0.954653 0.0286094 -0.954716 0.0267886 -0.95476C 0.025905 -0.954781 0.0252801 -0.954796 0.0248357 -0.954807C 0.0246268 -0.954812 0.0244898 -0.954815 0.024385 -0.954817C 0.0243392 -0.954818 0.0243148 -0.954819 0.0242919 -0.95482C 0.0242822 -0.95482 0.0242873 -0.95482 0 0.0448853ZM 6.53595 1.04424C 7.92142 0.994228 9.86829 0.994381 11.4823 1.00698C 12.2886 1.01327 13.0061 1.02269 13.524 1.03057C 13.7827 1.0345 13.9903 1.03803 14.134 1.04058C 14.2056 1.04186 14.2609 1.04289 14.2985 1.0436C 14.3172 1.04395 14.3314 1.04422 14.3409 1.04441C 14.3457 1.0445 14.3492 1.04457 14.3516 1.04462C 14.3528 1.04464 14.3537 1.04466 14.3543 1.04467C 14.3546 1.04468 14.3548 1.04468 14.3549 1.04468C 14.355 1.04468 14.355 1.04469 14.3551 1.04469C 14.3551 1.04469 14.3551 1.04469 14.375 0.0448853C 14.3949 -0.954916 14.3949 -0.954917 14.3948 -0.954918C 14.3948 -0.954919 14.3947 -0.95492 14.3946 -0.954922C 14.3945 -0.954925 14.3942 -0.954931 14.3939 -0.954937C 14.3932 -0.95495 14.3923 -0.954969 14.391 -0.954994C 14.3885 -0.955043 14.3847 -0.955117 14.3798 -0.955213C 14.37 -0.955402 14.3554 -0.955685 14.3363 -0.956045C 14.2983 -0.956764 14.242 -0.95781 14.1695 -0.959099C 14.0251 -0.96167 13.8148 -0.965242 13.5545 -0.969201C 13.0344 -0.977107 12.3095 -0.98662 11.4979 -0.992957C 9.87609 -1.0056 7.88546 -1.00545 6.46404 -0.954464L 6.53595 1.04424ZM 14.375 0.0448853C 13.375 0.0448853 13.375 0.0449482 13.375 0.0450739C 13.375 0.0451996 13.375 0.0453881 13.375 0.0456393C 13.375 0.0461415 13.375 0.0468942 13.375 0.047896C 13.375 0.0498997 13.375 0.0528999 13.375 0.0568863C 13.375 0.064859 13.375 0.0767761 13.375 0.0925537C 13.375 0.124109 13.375 0.171106 13.375 0.232874C 13.375 0.356409 13.375 0.539026 13.375 0.775355C 13.375 1.24801 13.375 1.93551 13.375 2.79489C 13.375 4.51364 13.375 6.91989 13.375 9.66989C 13.375 15.1699 13.375 22.0449 13.375 27.5449L 15.375 27.5449C 15.375 22.0449 15.375 15.1699 15.375 9.66989C 15.375 6.91989 15.375 4.51364 15.375 2.79489C 15.375 1.93551 15.375 1.24801 15.375 0.775355C 15.375 0.539026 15.375 0.356409 15.375 0.232874C 15.375 0.171106 15.375 0.124109 15.375 0.0925537C 15.375 0.0767761 15.375 0.064859 15.375 0.0568863C 15.375 0.0528999 15.375 0.0498997 15.375 0.047896C 15.375 0.0468942 15.375 0.0461415 15.375 0.0456393C 15.375 0.0453881 15.375 0.0451996 15.375 0.0450739C 15.375 0.0449482 15.375 0.0448853 14.375 0.0448853ZM 13.375 27.5449L 13.375 54.5449L 15.375 54.5449L 15.375 27.5449L 13.375 27.5449ZM 1 54.5449L 1 26.5449L -1 26.5449L -1 54.5449L 1 54.5449ZM 1 26.5449C 1 21.2949 1 14.6699 1 9.35739C 1 6.70114 1 4.37301 1 2.70895C 1 1.87692 1 1.2109 1 0.752893C 1 0.523889 1 0.346887 1 0.227136C 1 0.167261 1 0.121698 1 0.0911039C 1 0.075807 1 0.0642522 1 0.0565217C 1 0.0526565 1 0.0497473 1 0.0478044C 1 0.046833 1 0.0461031 1 0.0456161C 1 0.0453726 1 0.0451899 1 0.0450679C 1 0.044946 1 0.044885 0 0.0448853C -1 0.0448855 -1 0.0449465 -1 0.0450685C -1 0.0451904 -1 0.0453732 -1 0.0456167C -1 0.0461037 -1 0.0468335 -1 0.0478049C -1 0.0497478 -1 0.052657 -1 0.0565223C -1 0.0642527 -1 0.0758075 -1 0.0911044C -1 0.121698 -1 0.167261 -1 0.227137C -1 0.346888 -1 0.52389 -1 0.752894C -1 1.2109 -1 1.87692 -0.999999 2.70895C -0.999999 4.37301 -0.999999 6.70114 -0.999998 9.35739C -0.999998 14.6699 -0.999998 21.2949 -1 26.5449L 1 26.5449Z"/>
<path id="path16_fill" d="M 0 0.0448914C 0 0.0448914 4.88026 0.139153 7.50002 0.0448888C 10.3069 -0.0561089 14.375 0.0448852 14.375 0.0448852C 14.375 0.0448852 14.375 16.5449 14.375 26.5449L 14.375 55.5449L 0 54.5449L 2.77162e-06 26.5449C -2.0206e-05 15.5449 0 0.0448914 0 0.0448914Z"/>
<path id="path17_stroke_2x" d="M 0 0.0448914L 0.0193113 -0.954922L -0.999999 -0.97461L -1 0.0448901L 0 0.0448914ZM 14.375 0.0448852L 15.375 0.0448852L 15.375 -0.930597L 14.3998 -0.954807L 14.375 0.0448852ZM 14.375 55.5449L 14.3056 56.5425L 15.375 56.6169L 15.375 55.5449L 14.375 55.5449ZM 0 54.5449L -1 54.5449L -1 55.4777L -0.069397 55.5425L 0 54.5449ZM 7.50002 0.0448888L 7.53598 1.04424L 7.50002 0.0448888ZM 2.77162e-06 26.5449L 1 26.5449L 1 26.5449L 2.77162e-06 26.5449ZM 14.4444 54.5473L 0.069397 53.5473L -0.069397 55.5425L 14.3056 56.5425L 14.4444 54.5473ZM 0 0.0448914C -0.0193113 1.0447 -0.0192782 1.04471 -0.0192265 1.04471C -0.0191845 1.04471 -0.0191142 1.04471 -0.0190303 1.04471C -0.018872 1.04471 -0.0186203 1.04472 -0.0183046 1.04472C -0.0176927 1.04474 -0.0167469 1.04475 -0.0155297 1.04478C -0.0131343 1.04482 -0.00949444 1.04489 -0.00475723 1.04498C 0.00463815 1.04516 0.0187485 1.04542 0.0371074 1.04576C 0.0736635 1.04643 0.127902 1.04741 0.197545 1.04861C 0.336494 1.05101 0.538611 1.05434 0.788702 1.05804C 1.28816 1.06542 1.98364 1.0743 2.75999 1.08021C 4.31133 1.09201 6.20812 1.09186 7.53598 1.04424L 7.46406 -0.954464C 6.17216 -0.907817 4.31894 -0.907971 2.77521 -0.919732C 2.00402 -0.9256 1.3157 -0.934394 0.818246 -0.941744C 0.569879 -0.945413 0.370259 -0.948707 0.232086 -0.951093C 0.163167 -0.952284 0.109998 -0.953241 0.0737869 -0.953905C 0.0557621 -0.954235 0.0421489 -0.95449 0.0329166 -0.954664C 0.02834 -0.95475 0.0249401 -0.954814 0.0226241 -0.954859C 0.0214856 -0.95488 0.0206577 -0.954896 0.020085 -0.954907C 0.0198083 -0.954913 0.019615 -0.954916 0.0194762 -0.954919C 0.0194117 -0.95492 0.0193705 -0.954921 0.0193381 -0.954922C 0.0193155 -0.954922 0.0193113 -0.954922 0 0.0448914ZM 7.53598 1.04424C 8.92145 0.994228 10.6176 0.994378 11.9809 1.00697C 12.6615 1.01325 13.2531 1.02264 13.677 1.03051C 13.8884 1.03443 14.0566 1.03795 14.1728 1.0405C 14.2306 1.04177 14.2749 1.04279 14.3052 1.0435C 14.3202 1.04385 14.3314 1.04412 14.3391 1.04431C 14.3429 1.0444 14.3456 1.04447 14.3476 1.04451C 14.3485 1.04454 14.3491 1.04455 14.3496 1.04456C 14.3498 1.04457 14.35 1.04457 14.3501 1.04457C 14.3501 1.04458 14.3502 1.04458 14.3502 1.04458C 14.3502 1.04458 14.3502 1.04458 14.375 0.0448852C 14.3998 -0.954807 14.3998 -0.954808 14.3997 -0.954809C 14.3997 -0.95481 14.3996 -0.954812 14.3996 -0.954813C 14.3994 -0.954817 14.3992 -0.954822 14.3989 -0.954829C 14.3984 -0.954842 14.3976 -0.954862 14.3965 -0.954888C 14.3945 -0.954937 14.3914 -0.955013 14.3874 -0.95511C 14.3795 -0.955301 14.3676 -0.955586 14.3521 -0.955949C 14.3214 -0.95667 14.2755 -0.957722 14.2167 -0.959016C 14.0994 -0.961592 13.9279 -0.965177 13.7141 -0.969145C 13.2875 -0.977059 12.6866 -0.986596 11.9993 -0.992945C 10.6268 -1.0056 8.88549 -1.00545 7.46406 -0.954464L 7.53598 1.04424ZM 14.375 0.0448852C 13.375 0.0448852 13.375 0.0449482 13.375 0.0450739C 13.375 0.0451996 13.375 0.0453881 13.375 0.0456392C 13.375 0.0461414 13.375 0.0468939 13.375 0.0478955C 13.375 0.0498987 13.375 0.052898 13.375 0.0568825C 13.375 0.0648514 13.375 0.0767609 13.375 0.0925232C 13.375 0.124048 13.375 0.170984 13.375 0.232629C 13.375 0.355921 13.375 0.538049 13.375 0.773401C 13.375 1.2441 13.375 1.9277 13.375 2.77926C 13.375 4.48239 13.375 6.85739 13.375 9.54489C 13.375 14.9199 13.375 21.5449 13.375 26.5449L 15.375 26.5449C 15.375 21.5449 15.375 14.9199 15.375 9.54489C 15.375 6.85739 15.375 4.48239 15.375 2.77926C 15.375 1.9277 15.375 1.2441 15.375 0.773401C 15.375 0.538049 15.375 0.355921 15.375 0.232629C 15.375 0.170984 15.375 0.124048 15.375 0.0925232C 15.375 0.0767609 15.375 0.0648514 15.375 0.0568825C 15.375 0.052898 15.375 0.0498987 15.375 0.0478955C 15.375 0.0468939 15.375 0.0461414 15.375 0.0456392C 15.375 0.0453881 15.375 0.0451996 15.375 0.0450739C 15.375 0.0449482 15.375 0.0448852 14.375 0.0448852ZM 13.375 26.5449L 13.375 55.5449L 15.375 55.5449L 15.375 26.5449L 13.375 26.5449ZM 1 54.5449L 1 26.5449L -0.999997 26.5449L -1 54.5449L 1 54.5449ZM 1 26.5449C 0.999991 21.0449 0.999991 14.4199 0.999993 9.16989C 0.999994 6.54489 0.999996 4.26364 0.999997 2.63864C 0.999998 1.82614 0.999999 1.1777 0.999999 0.732392C 0.999999 0.509736 1 0.337861 1 0.22165C 1 0.163545 1 0.119356 1 0.0896924C 1 0.0748609 1 0.0636609 1 0.0561689C 1 0.0524229 1 0.0496038 1 0.0477212C 1 0.04678 1 0.0460728 1 0.045601C 1 0.0453651 1 0.045188 1 0.0450699C 1 0.0449518 1 0.0448927 0 0.0448914C -1 0.0448901 -1 0.0449492 -1 0.0450673C -1 0.0451854 -1 0.0453625 -1 0.0455984C -1 0.0460702 -1 0.0467774 -1 0.0477187C -1 0.0496012 -1 0.0524203 -1 0.0561663C -1 0.0636584 -1 0.0748583 -1 0.0896899C -1 0.119353 -1 0.163542 -1 0.221648C -1 0.337859 -1 0.509734 -1 0.73239C -1 1.1777 -1 1.82614 -1 2.63864C -1 4.26364 -1.00001 6.54489 -1.00001 9.16989C -1.00001 14.4199 -1.00001 21.0449 -0.999997 26.5449L 1 26.5449Z"/>
<path id="path18_stroke" d="M 0 -0.5C -0.276142 -0.5 -0.5 -0.276142 -0.5 0C -0.5 0.276142 -0.276142 0.5 0 0.5L 0 -0.5ZM 6 0.5C 6.27614 0.5 6.5 0.276142 6.5 0C 6.5 -0.276142 6.27614 -0.5 6 -0.5L 6 0.5ZM 0 0.5L 6 0.5L 6 -0.5L 0 -0.5L 0 0.5Z"/>
<path id="path19_fill" fill-rule="evenodd" d="M 11.923 4.53943C 14.0146 2.98434 17.4302 1.02533 21.0947 0C 19.7861 1.18967 18.7647 2.17081 17.9529 3.103C 20.8006 2.52405 22.8665 1.97879 24.0784 1.65894C 24.7704 1.47632 25.1839 1.36719 25.3056 1.36719L 24.1025 2.73438L 29.5165 3.64584C 28.7144 4.10156 27.2306 5.19531 27.7119 5.92447C 28.1931 6.65363 30.3186 8.35504 31.3212 9.11456L 29.5165 9.57031C 30.5191 10.4818 32.404 13.0338 31.9227 15.9505L 28.3134 14.1276C 27.5113 14.8871 23.368 16.2797 19.8916 15.9505C 16.7626 15.6542 15.668 15.5505 14.6237 15.2638C 14.0619 15.1095 13.5146 14.9022 12.6729 14.5833C 12.6729 14.5833 12.6729 15.0391 13.2744 15.4948C 13.876 15.9505 7.18646 14.4904 6.65729 14.1276C 2.80702 15.9505 0 15.9505 0 15.9505C 0.292419 15.3844 0.671173 14.7169 1.13542 13.9897L 0.641693 14.1052C 0.97963 12.7851 2.19919 9.33456 4.22775 7.59308C 4.27115 7.51413 4.31812 7.47269 4.36884 7.4758C 4.32138 7.51395 4.27435 7.55307 4.22775 7.59308C 4.09778 7.82944 3.99953 8.40198 3.92638 9.12164C 4.71832 7.46707 6.04095 5.53009 8.16095 4.82654C 7.7543 5.11606 7.56924 5.94089 7.49615 6.94156C 8.42117 5.43848 9.99963 3.53424 12.0713 2.27869C 11.6045 3.33963 11.3472 4.13916 11.2119 4.83646C 11.4456 4.73279 11.6826 4.63364 11.923 4.53943Z"/>
<path id="path20_stroke" d="M 21.0947 0L 21.431 0.369969L 20.96 -0.481507L 21.0947 0ZM 11.923 4.53943L 12.1054 5.00496L 12.1677 4.98056L 12.2213 4.94068L 11.923 4.53943ZM 17.9529 3.103L 17.5759 2.77464L 16.6074 3.88678L 18.0526 3.59297L 17.9529 3.103ZM 24.0784 1.65894L 24.206 2.14238L 24.206 2.14238L 24.0784 1.65894ZM 25.3056 1.36719L 25.681 1.6975L 26.4116 0.867188L 25.3056 0.867188L 25.3056 1.36719ZM 24.1025 2.73438L 23.7271 2.40406L 23.1338 3.07833L 24.0195 3.22744L 24.1025 2.73438ZM 29.5165 3.64584L 29.7635 4.08057L 30.9857 3.38615L 29.5995 3.15278L 29.5165 3.64584ZM 27.7119 5.92447L 28.1292 5.64905L 28.1292 5.64904L 27.7119 5.92447ZM 31.3212 9.11456L 31.4436 9.59934L 32.4527 9.3445L 31.6231 8.71601L 31.3212 9.11456ZM 29.5165 9.57031L 29.3941 9.08553L 28.4909 9.31363L 29.1802 9.94028L 29.5165 9.57031ZM 31.9227 15.9505L 31.6973 16.3968L 32.3052 16.7038L 32.4161 16.0319L 31.9227 15.9505ZM 28.3134 14.1276L 28.5388 13.6813L 28.2249 13.5228L 27.9696 13.7646L 28.3134 14.1276ZM 19.8916 15.9505L 19.9387 15.4527L 19.9387 15.4527L 19.8916 15.9505ZM 14.6237 15.2638L 14.4913 15.7459L 14.4913 15.7459L 14.6237 15.2638ZM 12.6729 14.5833L 12.85 14.1157L 12.1729 13.8592L 12.1729 14.5833L 12.6729 14.5833ZM 6.65729 14.1276L 6.94003 13.7152L 6.70304 13.5527L 6.44333 13.6757L 6.65729 14.1276ZM 0 15.9505L -0.444239 15.721L -0.821021 16.4505L 0 16.4505L 0 15.9505ZM 1.13542 13.9897L 1.55687 14.2587L 2.21815 13.2228L 1.02149 13.5028L 1.13542 13.9897ZM 0.641693 14.1052L 0.157313 13.9812L -0.0471506 14.7799L 0.755622 14.5921L 0.641693 14.1052ZM 4.36884 7.4758L 4.6821 7.8655L 5.68925 7.05589L 4.39946 6.97674L 4.36884 7.4758ZM 3.92638 9.12164L 3.42894 9.07108L 4.37738 9.33751L 3.92638 9.12164ZM 8.16095 4.82654L 8.45094 5.23385L 8.00346 4.35199L 8.16095 4.82654ZM 7.49615 6.94156L 6.99748 6.90514L 7.92198 7.20362L 7.49615 6.94156ZM 12.0713 2.27869L 12.529 2.48006L 13.167 1.02997L 11.8122 1.85109L 12.0713 2.27869ZM 11.2119 4.83646L 10.721 4.74118L 10.5384 5.68219L 11.4146 5.29351L 11.2119 4.83646ZM 20.96 -0.481507C 17.237 0.564175 13.7406 2.56612 11.6247 4.13818L 12.2213 4.94068C 14.2886 3.40257 17.6235 1.48648 21.2294 0.481507L 20.96 -0.481507ZM 18.33 3.43135C 19.1268 2.51562 20.1275 1.55498 21.431 0.369969L 20.7584 -0.369969C 19.4447 0.824357 18.4026 1.826 17.5759 2.77464L 18.33 3.43135ZM 23.9508 1.17549C 22.7389 1.49534 20.6869 2.03714 17.8533 2.61302L 18.0526 3.59297C 20.9143 3.01096 22.9941 2.46224 24.206 2.14238L 23.9508 1.17549ZM 25.3056 0.867188C 25.1704 0.867188 24.9682 0.914648 24.7872 0.958868C 24.5776 1.01009 24.2968 1.08418 23.9508 1.17549L 24.206 2.14238C 24.8979 1.95977 25.363 1.87134 25.3056 1.86719L 25.3056 0.867188ZM 24.4778 3.06469L 25.681 1.6975L 24.9302 1.03687L 23.7271 2.40406L 24.4778 3.06469ZM 29.5995 3.15278L 24.1855 2.24131L 24.0195 3.22744L 29.4335 4.13891L 29.5995 3.15278ZM 28.1292 5.64904C 28.1237 5.6408 28.1001 5.61708 28.1429 5.50888C 28.198 5.35746 28.3067 5.21913 28.4909 5.03169C 28.8649 4.64451 29.3795 4.29834 29.7635 4.08057L 29.2695 3.21112C 28.8515 3.44907 28.2231 3.87763 27.775 4.33354C 27.5481 4.56765 27.326 4.86796 27.2131 5.14094C 27.088 5.45713 27.0594 5.84356 27.2946 6.1999L 28.1292 5.64904ZM 31.6231 8.71601C 31.1255 8.33903 30.3547 7.7328 29.6455 7.12771C 28.9142 6.50396 28.3231 5.94297 28.1292 5.64905L 27.2945 6.19989C 27.5818 6.63512 28.2941 7.28942 28.9965 7.88855C 29.721 8.50634 30.5143 9.13058 31.0193 9.51311L 31.6231 8.71601ZM 29.6389 10.0551L 31.4436 9.59934L 31.1988 8.62978L 29.3941 9.08553L 29.6389 10.0551ZM 32.4161 16.0319C 32.9374 12.8722 30.911 10.1622 29.8528 9.20034L 29.1802 9.94028C 30.1273 10.8013 31.8706 13.1955 31.4294 15.8691L 32.4161 16.0319ZM 28.088 14.5739L 31.6973 16.3968L 32.1481 15.5042L 28.5388 13.6813L 28.088 14.5739ZM 19.8444 16.4483C 21.6409 16.615 23.6314 16.3398 25.2293 15.9317C 26.0322 15.7259 26.7684 15.4794 27.3408 15.2405C 27.9027 15.0056 28.3858 14.7476 28.6572 14.4906L 27.9696 13.7646C 27.8399 13.8873 27.5043 14.0883 26.9551 14.3178C 26.4165 14.5433 25.7492 14.7668 24.9814 14.9629C 23.4381 15.3587 21.6187 15.6152 19.9387 15.4527L 19.8444 16.4483ZM 14.4913 15.7459C 15.5779 16.0423 16.7154 16.152 19.8444 16.4483L 19.9387 15.4527C 16.8097 15.1564 15.7581 15.0587 14.7561 14.7816L 14.4913 15.7459ZM 12.4958 15.0509C 13.3375 15.3697 13.907 15.5849 14.4913 15.7459L 14.7561 14.7816C 14.2168 14.6341 13.6917 14.4346 12.85 14.1157L 12.4958 15.0509ZM 13.5764 15.0962C 13.3427 14.9192 13.2463 14.7589 13.2057 14.6668C 13.1825 14.6177 13.1794 14.6013 13.1736 14.569C 13.1717 14.5606 13.1717 14.5545 13.1721 14.56C 13.1721 14.559 13.1726 14.5675 13.1726 14.5673C 13.1725 14.5654 13.1728 14.5751 13.1728 14.5742C 13.1728 14.5728 13.1729 14.5791 13.1729 14.5784C 13.1729 14.5777 13.1729 14.5812 13.1729 14.5808C 13.1729 14.5804 13.1729 14.5822 13.1729 14.582C 13.1729 14.5823 13.1729 14.5826 13.1729 14.5827C 13.1729 14.583 13.1729 14.5833 12.6729 14.5833C 12.1729 14.5833 12.1729 14.5836 12.1729 14.584C 12.1729 14.5841 12.1729 14.5844 12.1729 14.5846C 12.1729 14.5849 12.1729 14.5855 12.1729 14.586C 12.1729 14.5865 12.1729 14.5879 12.1729 14.5888C 12.1729 14.5899 12.173 14.5929 12.173 14.5951C 12.1731 14.5978 12.1733 14.6045 12.1735 14.6098C 12.1738 14.617 12.1748 14.6334 12.176 14.6476C 12.1779 14.6688 12.1834 14.7129 12.1909 14.7543C 12.204 14.8217 12.2385 14.9477 12.2904 15.0695C 12.4003 15.3192 12.6046 15.6146 12.9725 15.8933L 13.5764 15.0962ZM 6.37454 14.54C 6.45837 14.5974 6.56194 14.6415 6.64309 14.6733C 6.73057 14.7075 6.84483 14.747 6.96696 14.7858C 7.20729 14.862 7.52213 14.9506 7.8727 15.0421C 8.57123 15.2245 9.44946 15.4295 10.286 15.6072C 11.123 15.785 11.936 15.9392 12.4982 16.0194C 12.7844 16.0601 13.0395 16.0844 13.1963 16.0816C 13.2435 16.0803 13.3104 16.0741 13.3558 16.0661C 13.3934 16.059 13.5223 16.0341 13.6367 15.9327C 13.7057 15.8716 13.7788 15.7736 13.804 15.6377C 13.8286 15.5049 13.7969 15.3928 13.7626 15.3196C 13.7037 15.1943 13.6093 15.1212 13.5764 15.0962L 12.9725 15.8933C 12.9674 15.8895 12.953 15.8782 12.935 15.8592C 12.9187 15.8421 12.8852 15.8039 12.8572 15.7443C 12.8278 15.6817 12.7978 15.5794 12.8207 15.4554C 12.8443 15.3283 12.9125 15.2383 12.9735 15.1843C 13.0294 15.1347 13.083 15.1112 13.1093 15.1011C 13.138 15.0901 13.1599 15.0855 13.1691 15.0837C 13.1642 15.084 13.1888 15.0818 13.1727 15.0819C 13.0768 15.0851 12.9039 15.0673 12.6392 15.0294C 12.0998 14.9527 11.3201 14.8047 10.4938 14.6291C 9.66699 14.4534 8.81121 14.2538 8.12541 14.0746C 7.78383 13.9854 7.49393 13.9039 7.26948 13.8326C 7.05133 13.7636 6.92388 13.7 6.94003 13.7152L 6.37454 14.54ZM 0 15.9505C 0 16.4505 0.000169352 16.4505 0.0003494 16.4505C 0.000423727 16.4505 0.000614664 16.4505 0.000763358 16.4505C 0.000954917 16.4505 0.00140147 16.4505 0.00178463 16.4505C 0.00233906 16.4505 0.00349023 16.4505 0.00459843 16.4505C 0.00638998 16.4505 0.0097196 16.4505 0.0132934 16.4504C 0.0195872 16.4504 0.0303155 16.4502 0.0428122 16.4499C 0.0660814 16.4495 0.103494 16.4484 0.149239 16.4465C 0.237216 16.4428 0.373295 16.4349 0.542635 16.4201C 0.874027 16.3908 1.37061 16.3306 1.97936 16.2136C 3.18122 15.9817 4.90582 15.5079 6.87124 14.5795L 6.44333 13.6757C 4.55849 14.5702 2.95444 15.0078 1.79023 15.2317C 1.21594 15.3426 0.770125 15.3962 0.45488 15.4239C 0.300901 15.4376 0.187602 15.444 0.10703 15.4474C 0.0685003 15.449 0.0418455 15.4498 0.0221161 15.4502C 0.0131136 15.4504 0.00760985 15.4504 0.00304632 15.4505C 0.0011915 15.4505 0.000436192 15.4505 -0.00050004 15.4505C -0.000755724 15.4505 -0.000887558 15.4505 -0.000758354 15.4505C -0.00079971 15.4505 -0.000486135 15.4505 -0.000506577 15.4505C -0.000443442 15.4505 -0.0003167 15.4505 -0.000285178 15.4505C -0.000147937 15.4505 0 15.4505 0 15.9505ZM 0.71397 13.7207C 0.242874 14.459 -0.147214 15.1462 -0.444239 15.721L 0.444239 16.18C 0.732053 15.6225 1.09947 14.9749 1.55687 14.2587L 0.71397 13.7207ZM 0.755622 14.5921L 1.24935 14.4765L 1.02149 13.5028L 0.527764 13.6184L 0.755622 14.5921ZM 3.90206 7.2137C 2.83436 8.13782 1.96367 9.52027 1.35039 10.7899C 0.736168 12.0659 0.330563 13.3055 0.157313 13.9812L 1.12607 14.2292C 1.29076 13.5848 1.6639 12.4391 2.25108 11.2244C 2.83921 10.0034 3.59258 8.78982 4.55344 7.97246L 3.90206 7.2137ZM 4.66592 7.83393C 4.672 7.82287 4.65938 7.85087 4.61805 7.88576C 4.57004 7.92628 4.47238 7.98309 4.33821 7.97486L 4.39946 6.97674C 4.02525 6.95377 3.83986 7.26077 3.78958 7.35223L 4.66592 7.83393ZM 4.05557 7.0861C 4.00485 7.12689 3.95161 7.17119 3.90205 7.21371L 4.55346 7.97244C 4.5971 7.93495 4.63791 7.901 4.6821 7.8655L 4.05557 7.0861ZM 4.42381 9.1722C 4.45956 8.81997 4.49942 8.51838 4.54695 8.26955C 4.59634 8.00986 4.64235 7.87679 4.66588 7.83401L 3.78963 7.35215C 3.68318 7.54573 3.61508 7.8171 3.56456 8.0827C 3.51218 8.35914 3.46635 8.70365 3.42894 9.07108L 4.42381 9.1722ZM 8.00346 4.35199C 5.68379 5.12181 4.28316 7.21811 3.47538 8.90578L 4.37738 9.33751C 5.15348 7.71603 6.39812 5.93838 8.31844 5.30109L 8.00346 4.35199ZM 7.99483 6.97798C 8.02986 6.49447 8.08615 6.08954 8.1838 5.75622C 8.28149 5.4183 8.38937 5.27769 8.45094 5.23385L 7.87096 4.41923C 7.52588 4.66491 7.33791 5.08147 7.22314 5.47851C 7.10832 5.88016 7.03554 6.38798 6.99748 6.90514L 7.99483 6.97798ZM 11.8122 1.85109C 9.67305 3.15564 8.01479 5.14719 7.07033 6.6795L 7.92198 7.20362C 8.82756 5.72977 10.3262 3.91285 12.3305 2.70629L 11.8122 1.85109ZM 11.7027 4.93173C 11.8315 4.2636 12.0719 3.51714 12.529 2.48006L 11.6137 2.07731C 11.1371 3.16212 10.8629 4.01472 10.721 4.74118L 11.7027 4.93173ZM 11.7406 4.0739C 11.4949 4.1702 11.2477 4.2736 11.0091 4.37941L 11.4146 5.29351C 11.6434 5.19198 11.8703 5.09707 12.1054 5.00496L 11.7406 4.0739Z"/>
<path id="path21_fill" d="M 0 26.5692L 0 46.3073C 0 46.3073 8.5 47.0692 17 47.0692C 25.5 47.0692 35.7805 43.5692 35.7805 43.5692C 35.7805 43.5692 36.7805 43.0692 37.5 25.0692C 37.5 25.0692 38 0.0692017 24.5 2.56921C 24.5 0.759714 23.1626 1.01165 22.5 0.0692018C 20.6778 -0.307777 16.0659 0.854969 10.5 3.56922C 4.93415 6.28347 1.15955 21.48 0 26.5692Z"/>
<path id="path22_stroke" d="M 0 46.3073L -0.5 46.3073L -0.5 46.7645L -0.0446375 46.8053L 0 46.3073ZM 0 26.5692L -0.487506 26.4581L -0.5 26.513L -0.5 26.5692L 0 26.5692ZM 10.5 3.56922L 10.7192 4.01863L 10.5 3.56922ZM 22.5 0.0692018L 22.909 -0.21837L 22.7952 -0.380321L 22.6013 -0.420429L 22.5 0.0692018ZM 24.5 2.56921L 24 2.56921L 24 3.17031L 24.591 3.06085L 24.5 2.56921ZM 37.5 25.0692L 37.9997 25.0892L 37.9999 25.0792L 37.5 25.0692ZM 35.7805 43.5692L 35.9416 44.0425L 35.9737 44.0316L 36.0041 44.0164L 35.7805 43.5692ZM 0.5 46.3073L 0.5 26.5692L -0.5 26.5692L -0.5 46.3073L 0.5 46.3073ZM 0.487506 26.6803C 1.06646 24.1392 2.29126 19.1 4.066 14.3536C 4.95258 11.9806 5.9622 9.71098 7.10076 7.85346C 8.24024 5.99241 9.45787 4.63371 10.7192 4.01863L 10.2808 3.11981C 8.7592 3.86185 7.41782 5.42056 6.24792 7.33128C 5.07712 9.24553 4.02702 11.602 3.12928 14.0036C 1.33537 18.8063 0.0930929 23.91 -0.487506 26.4581L 0.487506 26.6803ZM 10.7192 4.01863C 13.4817 2.67089 15.9841 1.71765 18.039 1.1414C 20.1101 0.560067 21.6158 0.396852 22.3987 0.558833L 22.6013 -0.420429C 21.5621 -0.635428 19.8507 -0.405759 17.7688 0.178604C 15.6707 0.768039 13.0842 1.7533 10.2808 3.11981L 10.7192 4.01863ZM 22.091 0.356773C 22.304 0.650102 22.5871 0.875668 22.8262 1.02645C 23.0665 1.17654 23.2888 1.28596 23.4691 1.40876C 23.6503 1.52938 23.7542 1.6141 23.8431 1.78961C 23.9282 1.9436 24 2.17886 24 2.56921L 25 2.56921C 25 2.05482 24.9046 1.64301 24.7183 1.30586C 24.5357 0.990241 24.2639 0.739755 24.0278 0.57937C 23.791 0.421161 23.5546 0.303758 23.3579 0.179475C 23.1598 0.0558858 23.0273 -0.0404743 22.909 -0.21837L 22.091 0.356773ZM 24.591 3.06085C 27.7866 2.46908 30.1173 3.49517 31.8603 5.37054C 33.6296 7.27416 34.806 10.0715 35.579 13.009C 36.3525 15.9436 36.7053 18.9444 36.8685 21.2375C 36.9499 22.3807 36.9826 23.3344 36.9952 24.0092C 37.0015 24.3451 37.0027 24.6072 37.0023 24.7881C 37.0021 24.8777 37.0016 24.9455 37.0011 24.9919C 37.0008 25.0148 37.0006 25.0316 37.0004 25.0432C 37.0003 25.0489 37.0002 25.0529 37.0002 25.0557C 37.0001 25.0571 37.0001 25.0579 37.0001 25.0586C 37.0001 25.0589 37.0001 25.059 37.0001 25.0592C 37.0001 25.0593 37.0001 25.0592 37.5 25.0692C 37.9999 25.0792 37.9999 25.079 37.9999 25.0787C 37.9999 25.0784 37.9999 25.078 37.9999 25.0775C 37.9999 25.0767 38 25.0753 38 25.0736C 38.0001 25.0704 38.0001 25.0653 38.0002 25.059C 38.0004 25.0466 38.0007 25.0276 38.001 25.0032C 38.0015 24.9552 38.0021 24.8829 38.0023 24.7901C 38.0027 24.6059 38.0014 24.3334 37.995 23.9905C 37.9822 23.3079 37.9485 22.328 37.8659 21.1665C 37.7009 18.8503 37.335 15.7573 36.546 12.7545C 35.7565 9.75441 34.5267 6.77051 32.5928 4.68976C 30.6327 2.58075 27.9634 1.41935 24.409 2.07757L 24.591 3.06085ZM 37.0004 25.0492C 36.6413 34.0361 36.2138 38.6356 35.8755 40.9984C 35.7092 42.1638 35.5712 42.748 35.4718 43.0575C 35.4298 43.1917 35.4111 43.231 35.394 43.2589C 35.3931 43.2604 35.4028 43.2433 35.4259 43.2185C 35.412 43.2325 35.4848 43.1658 35.4756 43.1732C 35.4642 43.1818 35.5183 43.1433 35.5119 43.1475C 35.505 43.1518 35.537 43.1325 35.5333 43.1346C 35.5295 43.1367 35.5468 43.1272 35.5448 43.1282C 35.5468 43.1272 35.5498 43.1256 35.5508 43.1251C 35.5538 43.1235 35.5569 43.122 35.7805 43.5692C 36.0041 44.0164 36.0072 44.0149 36.0102 44.0133C 36.0112 44.0128 36.0142 44.0112 36.0162 44.0101C 36.0182 44.0091 36.0241 44.0058 36.028 44.0036C 36.0319 44.0014 36.0431 43.9947 36.0505 43.9901C 36.0578 43.9853 36.0779 43.9713 36.0912 43.9612C 36.1042 43.9508 36.1365 43.9219 36.1579 43.8999C 36.1795 43.876 36.2236 43.8186 36.2557 43.7663C 36.2962 43.6965 36.3611 43.5561 36.4242 43.3622C 36.5348 43.0154 36.6917 42.3496 36.8654 41.1401C 37.2069 38.7528 37.6391 34.1023 37.9996 25.0892L 37.0004 25.0492ZM 35.7805 43.5692C 35.6193 43.0959 35.6194 43.0959 35.6193 43.0959C 35.6193 43.0959 35.6192 43.0959 35.6191 43.096C 35.6188 43.0961 35.6185 43.0962 35.6179 43.0964C 35.6168 43.0968 35.6151 43.0973 35.6128 43.0981C 35.608 43.0997 35.601 43.1021 35.5915 43.1053C 35.5721 43.1118 35.5437 43.1213 35.5057 43.1339C 35.429 43.1593 35.3165 43.1962 35.1691 43.2436C 34.8729 43.3388 34.443 43.474 33.898 43.6371C 32.8052 43.9641 31.2676 44.398 29.4607 44.8331C 25.8407 45.7052 21.204 46.5713 17 46.5692L 17 47.5692C 21.296 47.5671 26.0495 46.6832 29.6948 45.8053C 31.5205 45.3655 33.0843 44.9243 34.1847 44.5951C 34.7363 44.43 35.1759 44.2918 35.4752 44.1956C 35.6255 44.1473 35.7422 44.109 35.8202 44.0831C 35.8596 44.0701 35.8899 44.06 35.91 44.0532C 35.9202 44.0498 35.9281 44.0471 35.9332 44.0454C 35.9358 44.0445 35.938 44.0438 35.9393 44.0433C 35.94 44.0431 35.9406 44.0429 35.9409 44.0428C 35.9411 44.0427 35.9413 44.0426 35.9414 44.0426C 35.9415 44.0426 35.9416 44.0425 35.7805 43.5692ZM 17 46.5692C 12.7612 46.5693 8.52611 46.3794 5.34232 46.1892C 3.75154 46.0941 2.42766 45.9992 1.49924 45.9278C 1.03555 45.8922 0.672005 45.8626 0.423519 45.8418C 0.299521 45.8314 0.204825 45.8233 0.140743 45.8178C 0.10882 45.815 0.0847999 45.8129 0.0685774 45.8115C 0.0605247 45.8107 0.0545411 45.8102 0.0504819 45.8099C 0.0484814 45.8097 0.0470206 45.8095 0.0460161 45.8095C 0.0455284 45.8094 0.0451838 45.8094 0.0449394 45.8094C 0.0448244 45.8093 0.0447489 45.8093 0.0446914 45.8093C 0.0446482 45.8093 0.0446375 45.8093 0 46.3073C -0.0446375 46.8053 -0.0445834 46.8053 -0.044497 46.8054C -0.044425 46.8054 -0.0443061 46.8054 -0.0441622 46.8054C -0.0438888 46.8054 -0.0434572 46.8054 -0.0429115 46.8055C -0.0418488 46.8056 -0.040213 46.8057 -0.0380956 46.8059C -0.0339189 46.8063 -0.027581 46.8069 -0.0192915 46.8076C -0.00282964 46.809 0.0219169 46.8112 0.0543257 46.814C 0.118905 46.8196 0.215127 46.8279 0.340153 46.8383C 0.589714 46.8592 0.956639 46.8891 1.42264 46.9249C 2.35359 46.9964 3.68596 47.092 5.28268 47.1874C 8.47389 47.3781 12.7388 47.5691 17 47.5692L 17 46.5692Z"/>
<path id="path23_fill" d="M 0 0L 13 0L 13 14L 0 14L 0 0Z"/>
<path id="path24_stroke_2x" d="M 0 0L 0 -1L -1 -1L -1 0L 0 0ZM 13 0L 14 0L 14 -1L 13 -1L 13 0ZM 13 14L 13 15L 14 15L 14 14L 13 14ZM 0 14L -1 14L -1 15L 0 15L 0 14ZM 0 1L 13 1L 13 -1L 0 -1L 0 1ZM 12 0L 12 14L 14 14L 14 0L 12 0ZM 13 13L 0 13L 0 15L 13 15L 13 13ZM 1 14L 1 0L -1 0L -1 14L 1 14Z"/>
<path id="path25_fill" d="M 5.99909 3.53745C 5.99909 5.49113 4.65615 7.0749 2.99955 7.0749C 1.34294 7.0749 0 5.49113 0 3.53745C 0 1.58377 1.34294 0 2.99955 0C 4.65615 0 5.99909 1.58377 5.99909 3.53745Z"/>
<path id="path26_stroke_2x" d="M 4.99909 3.53745C 4.99909 5.09983 3.95558 6.0749 2.99955 6.0749L 2.99955 8.0749C 5.35672 8.0749 6.99909 5.88242 6.99909 3.53745L 4.99909 3.53745ZM 2.99955 6.0749C 2.04351 6.0749 1 5.09983 1 3.53745L -1 3.53745C -1 5.88242 0.642373 8.0749 2.99955 8.0749L 2.99955 6.0749ZM 1 3.53745C 1 1.97507 2.04351 1 2.99955 1L 2.99955 -1C 0.642373 -1 -1 1.19247 -1 3.53745L 1 3.53745ZM 2.99955 1C 3.95558 1 4.99909 1.97507 4.99909 3.53745L 6.99909 3.53745C 6.99909 1.19247 5.35672 -1 2.99955 -1L 2.99955 1Z"/>
<path id="path27_fill" d="M 0 14.5C 0 6.49187 6.49187 0 14.5 0C 22.5081 0 29 6.49187 29 14.5L 29 25.5C 29 33.5081 22.5081 40 14.5 40C 6.49187 40 0 33.5081 0 25.5L 0 14.5Z"/>
<path id="path28_stroke_2x" d="M 28 14.5L 28 25.5L 30 25.5L 30 14.5L 28 14.5ZM 1 25.5L 1 14.5L -1 14.5L -1 25.5L 1 25.5ZM 14.5 -1C 5.93959 -1 -1 5.93959 -1 14.5L 1 14.5C 1 7.04416 7.04416 1 14.5 1L 14.5 -1ZM 14.5 1C 21.9558 1 28 7.04416 28 14.5L 30 14.5C 30 5.93959 23.0604 -1 14.5 -1L 14.5 1ZM 28 25.5C 28 32.9558 21.9558 39 14.5 39L 14.5 41C 23.0604 41 30 34.0604 30 25.5L 28 25.5ZM 14.5 39C 7.04416 39 1 32.9558 1 25.5L -1 25.5C -1 34.0604 5.93959 41 14.5 41L 14.5 39Z"/>
<path id="path29_stroke" d="M 1.1445 0.236502C 1.27511 -0.00679623 1.18377 -0.309914 0.94047 -0.44053C 0.697172 -0.571147 0.394055 -0.4798 0.263438 -0.236502L 1.1445 0.236502ZM 0.703966 3.52558L 0.533296 3.99555L 0.703966 3.52558ZM 2.80464 4.00488C 3.06936 3.92626 3.22021 3.64793 3.14159 3.38322C 3.06297 3.11851 2.78465 2.96765 2.51993 3.04627L 2.80464 4.00488ZM 0.703968 0C 0.263438 -0.236502 0.263374 -0.236383 0.263305 -0.236253C 0.263274 -0.236195 0.263198 -0.236054 0.263135 -0.235937C 0.263048 -0.235775 0.26286 -0.235424 0.262687 -0.2351C 0.262418 -0.234596 0.261898 -0.233622 0.261364 -0.232617C 0.260451 -0.2309 0.258849 -0.227876 0.257055 -0.224471C 0.253781 -0.218251 0.248436 -0.208027 0.242163 -0.195865C 0.230255 -0.172766 0.211858 -0.13653 0.190303 -0.0927122C 0.148511 -0.00768285 0.0877317 0.120698 0.0224454 0.271191C -0.105401 0.566524 -0.268198 0.993038 -0.375688 1.42829C -0.481483 1.86084 -0.550337 2.36892 -0.453805 2.83371C -0.350773 3.3298 -0.0534633 3.78246 0.533296 3.99555L 0.874637 3.05561C 0.669433 2.98109 0.570762 2.84925 0.525301 2.63036C 0.473341 2.38018 0.503483 2.04282 0.595679 1.66588C 0.68618 1.29164 0.820369 0.944611 0.940012 0.668774C 0.99847 0.533683 1.04906 0.427072 1.0877 0.348507C 1.10636 0.310527 1.12045 0.282814 1.13097 0.262414C 1.13591 0.252826 1.13927 0.246413 1.14189 0.241433C 1.14305 0.239239 1.14369 0.238021 1.14429 0.236899C 1.14451 0.236482 1.14456 0.236387 1.14467 0.236175C 1.14469 0.236141 1.14467 0.236189 1.14466 0.236206C 1.14464 0.236233 1.1446 0.236307 1.1446 0.236321C 1.14455 0.236406 1.1445 0.236502 0.703968 0ZM 0.533296 3.99555C 1.05784 4.17799 1.66031 4.18486 2.06593 4.1428C 2.27497 4.12039 2.46412 4.08573 2.58661 4.05911C 2.65076 4.04509 2.70611 4.03146 2.74035 4.02254C 2.75882 4.01772 2.77508 4.01328 2.78456 4.01064C 2.78995 4.00913 2.79501 4.00769 2.79773 4.0069C 2.7994 4.00642 2.80114 4.00591 2.80198 4.00567C 2.80256 4.0055 2.80322 4.0053 2.80351 4.00522C 2.80373 4.00515 2.80402 4.00507 2.80413 4.00503C 2.80422 4.00501 2.80435 4.00497 2.8044 4.00495C 2.80452 4.00492 2.80464 4.00488 2.66229 3.52558C 2.51993 3.04627 2.52004 3.04624 2.52015 3.0462C 2.52018 3.04619 2.52029 3.04616 2.52035 3.04615C 2.5203 3.04616 2.52076 3.04602 2.52067 3.04605C 2.52064 3.04606 2.52108 3.04593 2.52103 3.04595C 2.52123 3.04589 2.521 3.04595 2.52061 3.04606C 2.5192 3.04647 2.51811 3.04679 2.51539 3.04754C 2.50866 3.04943 2.50091 3.05155 2.4882 3.05485C 2.46009 3.06219 2.42439 3.07105 2.37379 3.08202C 2.26675 3.1054 2.13152 3.13073 1.96111 3.14831C 1.60783 3.18624 1.23114 3.19312 0.874637 3.05561L 0.533296 3.99555Z"/>
<path id="path30_stroke" d="M 0.441203 -0.235244C 0.311282 -0.478914 0.00842631 -0.571125 -0.235244 -0.441203C -0.478914 -0.311282 -0.571125 -0.00842631 -0.441203 0.235244L 0.441203 -0.235244ZM 13.4164 0.276725C 13.5693 0.0467308 13.5067 -0.26361 13.2767 -0.416441C 13.0467 -0.569272 12.7364 -0.506719 12.5836 -0.276725L 13.4164 0.276725ZM 0 0C -0.441203 0.235244 -0.441057 0.235518 -0.440904 0.235804C -0.440845 0.235915 -0.440685 0.236213 -0.440566 0.236435C -0.440423 0.236702 -0.440065 0.237368 -0.439777 0.237902C -0.43939 0.23862 -0.438518 0.240228 -0.437738 0.24166C -0.436561 0.243816 -0.43419 0.248123 -0.431805 0.2524C -0.427818 0.259533 -0.420525 0.272371 -0.41238 0.286307C -0.397733 0.311302 -0.372615 0.352776 -0.342228 0.399973C -0.285054 0.488481 -0.190046 0.625786 -0.0680616 0.779781C 0.167351 1.07552 0.557831 1.4953 1.08536 1.89823C 2.15506 2.71039 3.83587 3.5 6.30303 3.5L 6.30303 2.5C 4.06672 2.5 2.59602 1.78961 1.69006 1.10177C 1.22977 0.754698 0.926395 0.42448 0.714907 0.157719C 0.613441 0.0304637 0.546738 -0.0666063 0.498063 -0.142161C 0.475526 -0.176995 0.461684 -0.199974 0.450604 -0.218924C 0.445886 -0.226961 0.443622 -0.230969 0.441269 -0.235188C 0.440484 -0.236588 0.440489 -0.236584 0.440093 -0.237311C 0.440086 -0.237321 0.440359 -0.236819 0.440364 -0.23681C 0.440272 -0.236981 0.440759 -0.236076 0.440713 -0.236161C 0.440783 -0.23603 0.440906 -0.235801 0.440941 -0.235736C 0.441069 -0.235495 0.441203 -0.235244 0 0ZM 6.30303 3.5C 8.76846 3.5 10.5402 2.71177 11.6994 1.91146C 12.2733 1.51344 12.7101 1.10159 12.9819 0.80843C 13.122 0.656777 13.2322 0.522961 13.3001 0.435559C 13.3359 0.389401 13.3653 0.349471 13.3829 0.324976C 13.3925 0.311523 13.401 0.299406 13.4057 0.292509C 13.4085 0.288465 13.4112 0.284505 13.4126 0.282463C 13.4135 0.281146 13.4144 0.279708 13.4149 0.279047C 13.4152 0.278569 13.4156 0.277987 13.4158 0.277748C 13.4159 0.277555 13.4161 0.277299 13.4161 0.277202C 13.4163 0.276958 13.4164 0.276725 13 0C 12.5836 -0.276725 12.5837 -0.276935 12.5838 -0.277133C 12.5839 -0.277184 12.584 -0.277372 12.5841 -0.277474C 12.584 -0.277417 12.5845 -0.278069 12.5844 -0.277954C 12.5844 -0.27802 12.5846 -0.278239 12.5845 -0.278114C 12.5839 -0.277272 12.5837 -0.276929 12.5826 -0.275297C 12.5795 -0.270841 12.5762 -0.266113 12.5701 -0.257593C 12.5561 -0.238143 12.5381 -0.21362 12.5102 -0.177746C 12.4508 -0.101086 12.3684 -0.000527283 12.2481 0.12907C 11.9991 0.398408 11.6436 0.736562 11.1312 1.08854C 10.1178 1.78823 8.54107 2.5 6.30303 2.5L 6.30303 3.5Z"/>
<path id="path31_stroke" d="M 0.423999 1.265C 0.526368 1.10121 1.14293 0.5 2.5 0.5L 2.5 -0.5C 0.857067 -0.5 -0.109701 0.232124 -0.423999 0.735001L 0.423999 1.265ZM 2.5 0.5C 3.85707 0.5 4.47363 1.10121 4.576 1.265L 5.424 0.735001C 5.1097 0.232124 4.14293 -0.5 2.5 -0.5L 2.5 0.5Z"/>
<path id="path32_stroke" d="M 0.423999 1.265C 0.526368 1.10121 1.14293 0.5 2.5 0.5L 2.5 -0.5C 0.857067 -0.5 -0.109701 0.232124 -0.423999 0.735001L 0.423999 1.265ZM 2.5 0.5C 3.85707 0.5 4.47363 1.10121 4.576 1.265L 5.424 0.735001C 5.1097 0.232124 4.14293 -0.5 2.5 -0.5L 2.5 0.5Z"/>
<path id="path33_fill" d="M 3 1.5C 3 2.32843 2.32843 3 1.5 3C 0.671573 3 0 2.32843 0 1.5C 0 0.671573 0.671573 0 1.5 0C 2.32843 0 3 0.671573 3 1.5Z"/>
<path id="path34_fill" fill-rule="evenodd" d="M 17.7584 0.196564C 18.3279 0.0679321 18.9204 0 19.5287 0L 43.4359 0C 44.0571 0 44.6618 0.0708313 45.2423 0.204803L 45.2281 3.05176e-05C 47.9123 3.05176e-05 62.048 3.05176e-05 62.7541 13.4984C 63.1765 21.5741 63.2277 54.6645 62.7541 81.9967L 50.9122 81.9967L 50.5431 76.6728C 49.2118 79.2415 46.5288 80.9968 43.4359 80.9968L 19.5287 80.9968C 16.4599 80.9968 13.7946 79.2688 12.4528 76.7327L 12.0878 81.9984L 0.245929 81.9984C -0.227749 54.6662 0.056415 20.5769 0.478824 12.5012C 1.08048 0.998383 17.7719 0.00167847 17.7719 0.00167847L 17.7584 0.196564Z"/>
<path id="path35_stroke" d="M 17.7584 0.196564L 17.2596 0.162L 17.2132 0.832321L 17.8686 0.684277L 17.7584 0.196564ZM 45.2423 0.204803L 45.1298 0.691998L 45.7878 0.843832L 45.7411 0.170237L 45.2423 0.204803ZM 45.2281 3.05176e-05L 45.2281 -0.499969L 44.6922 -0.499969L 44.7293 0.0345974L 45.2281 3.05176e-05ZM 62.7541 13.4984L 62.2548 13.5245L 62.7541 13.4984ZM 62.7541 81.9967L 62.7541 82.4967L 63.2455 82.4967L 63.254 82.0054L 62.7541 81.9967ZM 50.9122 81.9967L 50.4134 82.0313L 50.4457 82.4967L 50.9122 82.4967L 50.9122 81.9967ZM 50.5431 76.6728L 51.0419 76.6382L 50.9188 74.8615L 50.0992 76.4427L 50.5431 76.6728ZM 12.4528 76.7327L 12.8948 76.4989L 12.0752 74.9499L 11.954 76.6982L 12.4528 76.7327ZM 12.0878 81.9984L 12.0878 82.4984L 12.5544 82.4984L 12.5866 82.033L 12.0878 81.9984ZM 0.245929 81.9984L -0.253996 82.0071L -0.245481 82.4984L 0.245929 82.4984L 0.245929 81.9984ZM 0.478824 12.5012L 0.978141 12.5273L 0.978141 12.5273L 0.478824 12.5012ZM 17.7719 0.00167847L 18.2707 0.0362417L 18.31 -0.531346L 17.7421 -0.497432L 17.7719 0.00167847ZM 19.5287 -0.5C 18.8919 -0.499186 18.2442 -0.425016 17.6482 -0.291149L 17.8686 0.684277C 18.4116 0.56088 18.9489 0.499186 19.5287 0.5L 19.5287 -0.5ZM 43.4359 -0.5L 19.5287 -0.5L 19.5287 0.5L 43.4359 0.5L 43.4359 -0.5ZM 45.3547 -0.282391C 44.7472 -0.421816 44.0862 -0.49915 43.4359 -0.5L 43.4359 0.5C 44.028 0.49915 44.5763 0.563478 45.1298 0.691998L 45.3547 -0.282391ZM 44.7293 0.0345974L 44.7435 0.23937L 45.7411 0.170237L 45.7269 -0.0345364L 44.7293 0.0345974ZM 63.2534 13.4722C 62.8885 6.49642 59.0265 2.97426 54.929 1.22738C 50.8752 -0.489853 46.5702 -0.499969 45.2281 -0.499969L 45.2281 0.500031C 46.5702 0.500031 50.6751 0.489914 54.5368 2.14727C 58.3547 3.77496 61.9136 7.00197 62.2548 13.5245L 63.2534 13.4722ZM 63.254 82.0054C 63.7277 54.6685 63.6763 21.5606 63.2534 13.4722L 62.2548 13.5245C 62.6767 21.5875 62.7278 54.6606 62.2542 81.9881L 63.254 82.0054ZM 50.9122 82.4967L 62.7541 82.4967L 62.7541 81.4967L 50.9122 81.4967L 50.9122 82.4967ZM 50.0443 76.7074L 50.4134 82.0313L 51.411 81.9622L 51.0419 76.6382L 50.0443 76.7074ZM 43.4359 81.4968C 46.7228 81.4968 49.5732 79.6309 50.9871 76.9029L 50.0992 76.4427C 48.8505 78.8522 46.3348 80.4968 43.4359 80.4968L 43.4359 81.4968ZM 19.5287 81.4968L 43.4359 81.4968L 43.4359 80.4968L 19.5287 80.4968L 19.5287 81.4968ZM 12.0109 76.9666C 13.4359 79.6599 16.2674 81.4968 19.5287 81.4968L 19.5287 80.4968C 16.6524 80.4968 14.1534 78.8777 12.8948 76.4989L 12.0109 76.9666ZM 11.954 76.6982L 11.589 81.9638L 12.5866 82.033L 12.9516 76.7673L 11.954 76.6982ZM 12.0878 81.4984L 0.245929 81.4984L 0.245929 82.4984L 12.0878 82.4984L 12.0878 81.4984ZM 0.745854 81.9897C 0.272245 54.6639 0.556186 20.5921 0.978141 12.5273L -0.0204934 12.4751C -0.443356 20.5618 -0.727744 54.6684 -0.253996 82.0071L 0.745854 81.9897ZM 0.978141 12.5273C 1.26348 7.07212 5.35107 4.06435 9.53553 2.40258C 11.6237 1.57174 13.6791 1.10046 15.24 0.829783C 16.0161 0.694971 16.6547 0.613224 17.1075 0.564046C 17.332 0.539642 17.5051 0.523918 17.6255 0.513984C 17.6847 0.509088 17.7287 0.505809 17.7593 0.503641C 17.7742 0.502588 17.7848 0.501879 17.7923 0.501387C 17.7959 0.501155 17.7982 0.501006 17.8 0.500894C 17.8008 0.500845 17.8012 0.500819 17.8016 0.500795C 17.8018 0.500786 17.8018 0.500785 17.8019 0.500781C 17.8018 0.500783 17.8017 0.500789 17.7719 0.00167847C 17.7421 -0.497432 17.7419 -0.497419 17.7416 -0.497401C 17.7414 -0.49739 17.741 -0.497368 17.7407 -0.497346C 17.7401 -0.497308 17.739 -0.49724 17.7377 -0.497163C 17.7355 -0.497023 17.7318 -0.496788 17.7273 -0.496497C 17.7188 -0.495944 17.7054 -0.495047 17.6887 -0.493863C 17.6562 -0.491558 17.6063 -0.487836 17.5432 -0.482623C 17.4187 -0.472341 17.2327 -0.455418 16.9995 -0.430102C 16.5372 -0.37984 15.867 -0.293853 15.069 -0.155493C 13.4815 0.120176 11.3263 0.616998 9.16645 1.47318C 4.85477 3.18547 0.295827 6.42746 -0.0204934 12.4751L 0.978141 12.5273ZM 17.2731 -0.0328848L 17.2596 0.162L 18.2572 0.231127L 18.2707 0.0362417L 17.2731 -0.0328848Z"/>
<path id="path36_stroke" d="M 0 -0.5C -0.276142 -0.5 -0.5 -0.276142 -0.5 0C -0.5 0.276142 -0.276142 0.5 0 0.5L 0 -0.5ZM 10 0.5C 10.2761 0.5 10.5 0.276142 10.5 0C 10.5 -0.276142 10.2761 -0.5 10 -0.5L 10 0.5ZM 0 0.5L 10 0.5L 10 -0.5L 0 -0.5L 0 0.5Z"/>
<path id="path37_stroke" d="M 0 -0.5C -0.276142 -0.5 -0.5 -0.276142 -0.5 0C -0.5 0.276142 -0.276142 0.5 0 0.5L 0 -0.5ZM 53.9978 0.5C 54.274 0.5 54.4978 0.276142 54.4978 0C 54.4978 -0.276142 54.274 -0.5 53.9978 -0.5L 53.9978 0.5ZM 0 0.5L 53.9978 0.5L 53.9978 -0.5L 0 -0.5L 0 0.5Z"/>
<path id="path38_fill" d="M 29.5 0.376461C 25.5 15.3765 7.66667 26.2098 0 29.8765C 0.166667 23.2098 -0.5 11.0765 5.5 5.87647C 11.5 0.676466 24.8333 -0.790205 29.5 0.376461Z"/>
<path id="path39_stroke" d="M 0 29.8765L -0.499844 29.864L -0.520232 30.6795L 0.215728 30.3275L 0 29.8765ZM 29.5 0.376461L 29.9831 0.505292L 30.114 0.0145673L 29.6213 -0.10861L 29.5 0.376461ZM 0.215728 30.3275C 4.06492 28.4863 10.4953 24.8276 16.4493 19.757C 22.3992 14.687 27.9452 8.14739 29.9831 0.505292L 29.0169 0.24763C 27.0548 7.60553 21.6841 13.9826 15.8007 18.9959C 9.92134 24.0087 3.60175 27.6 -0.215728 29.4254L 0.215728 30.3275ZM 29.6213 -0.10861C 27.1852 -0.717637 22.6019 -0.628412 17.9083 0.247448C 13.2124 1.12373 8.27341 2.81119 5.17253 5.49862L 5.82747 6.25431C 8.72659 3.74174 13.4542 2.09587 18.0917 1.23048C 22.7315 0.36467 27.1482 0.303893 29.3787 0.861532L 29.6213 -0.10861ZM 5.17253 5.49862C 2.02735 8.22445 0.674553 12.7175 0.066914 17.2602C -0.540959 21.8165 -0.416667 26.5435 -0.499844 29.864L 0.499844 29.889C 0.583333 26.5427 0.457626 21.8697 1.05809 17.3928C 1.65878 12.902 2.97265 8.72848 5.82747 6.25431L 5.17253 5.49862Z"/>
<path id="path40_fill" d="M 0 0L 3.03265 17.5L 9.09794 17.5L 11.2641 0L 0 0Z"/>
<path id="path41_stroke" d="M 3.03265 17.5L 2.53999 17.5854L 2.61184 18L 3.03265 18L 3.03265 17.5ZM 0 0L 0 -0.5L -0.594099 -0.5L -0.492657 0.0853746L 0 0ZM 11.2641 0L 11.7603 0.061422L 11.8298 -0.5L 11.2641 -0.5L 11.2641 0ZM 9.09794 17.5L 9.09794 18L 9.53987 18L 9.59416 17.5614L 9.09794 17.5ZM 3.5253 17.4146L 0.492657 -0.0853746L -0.492657 0.0853746L 2.53999 17.5854L 3.5253 17.4146ZM 0 0.5L 11.2641 0.5L 11.2641 -0.5L 0 -0.5L 0 0.5ZM 10.7679 -0.061422L 8.60173 17.4386L 9.59416 17.5614L 11.7603 0.061422L 10.7679 -0.061422ZM 9.09794 17L 3.03265 17L 3.03265 18L 9.09794 18L 9.09794 17Z"/>
<path id="path42_fill" d="M 1.45932 0L 0 3.5L 13.8635 3.5L 12.0394 0L 1.45932 0Z"/>
<path id="path43_stroke" d="M 0 3.5L -0.461492 3.30758L -0.750195 4L 0 4L 0 3.5ZM 1.45932 0L 1.45932 -0.5L 1.12607 -0.5L 0.997827 -0.192418L 1.45932 0ZM 12.0394 0L 12.4828 -0.23109L 12.3426 -0.5L 12.0394 -0.5L 12.0394 0ZM 13.8635 3.5L 13.8635 4L 14.688 4L 14.3069 3.26891L 13.8635 3.5ZM 0.461492 3.69242L 1.92081 0.192418L 0.997827 -0.192418L -0.461492 3.30758L 0.461492 3.69242ZM 1.45932 0.5L 12.0394 0.5L 12.0394 -0.5L 1.45932 -0.5L 1.45932 0.5ZM 11.596 0.23109L 13.4201 3.73109L 14.3069 3.26891L 12.4828 -0.23109L 11.596 0.23109ZM 13.8635 3L 0 3L 0 4L 13.8635 4L 13.8635 3Z"/>
<path id="path44_fill" d="M 2.03826 0.630594L 2.03826 1.20306C 1.8684 1.02297 1.42678 0.662793 1.01913 0.662793C 0.611478 0.662793 0.169855 1.02297 0 1.20306L 0 5.91112L 0 10.1561L 1.01913 17.9301L 9.15014 17.9301L 9.17217 11.0051L 9.40803 10.1689L 9.15014 6.75977C 9.15014 3.69824 9.17217 1.06281 9.17217 0.630594C 9.17217 0.0903245 8.57767 0.0903242 7.98318 0.0903242C 7.50759 0.0903242 6.99236 0.270414 6.7942 0.630594C 6.62434 0 6.12163 0 5.60522 0L 5.60521 0C 5.06319 0 4.58295 0.111801 4.41623 0.630594C 4.21806 0.450504 3.91715 0.0903242 3.22724 0.0903242C 2.53734 0.0903242 2.23642 0.450504 2.03826 0.630594Z"/>
<path id="path45_stroke" d="M 2.03826 0.630594L 1.70198 0.260569L 1.53826 0.40936L 1.53826 0.630594L 2.03826 0.630594ZM 9.15014 6.75977L 8.65014 6.75977L 8.65014 6.77865L 8.65157 6.79748L 9.15014 6.75977ZM 0 1.20306L -0.363738 0.859995L -0.5 1.00447L -0.5 1.20306L 0 1.20306ZM 9.17217 11.0051L 8.69095 10.8693L 8.67239 10.9351L 8.67217 11.0035L 9.17217 11.0051ZM 9.15014 17.9301L 9.15014 18.4301L 9.64856 18.4301L 9.65014 17.9317L 9.15014 17.9301ZM 1.01913 17.9301L 0.523372 17.9951L 0.580399 18.4301L 1.01913 18.4301L 1.01913 17.9301ZM 0 10.1561L -0.5 10.1561L -0.5 10.1887L -0.495758 10.2211L 0 10.1561ZM 9.40803 10.1689L 9.88925 10.3047L 9.91329 10.2195L 9.90661 10.1312L 9.40803 10.1689ZM 2.53826 5.91112L 2.53826 1.20306L 1.53826 1.20306L 1.53826 5.91112L 2.53826 5.91112ZM 2.53826 1.20306L 2.53826 0.630594L 1.53826 0.630594L 1.53826 1.20306L 2.53826 1.20306ZM 2.37454 1.00062C 2.59351 0.801615 2.75782 0.590324 3.22724 0.590324L 3.22724 -0.409676C 2.31687 -0.409676 1.87934 0.0993931 1.70198 0.260569L 2.37454 1.00062ZM 3.22724 0.590324C 3.69667 0.590324 3.86098 0.801615 4.07995 1.00062L 4.7525 0.260569C 4.57515 0.0993933 4.13762 -0.409676 3.22724 -0.409676L 3.22724 0.590324ZM 3.91623 0.630594L 3.91623 5.91112L 4.91623 5.91112L 4.91623 0.630594L 3.91623 0.630594ZM 6.2942 0.630594L 6.2942 5.91112L 7.2942 5.91112L 7.2942 0.630594L 6.2942 0.630594ZM 7.23227 0.871614C 7.29834 0.751533 7.57471 0.590324 7.98318 0.590324L 7.98318 -0.409676C 7.44047 -0.409676 6.68638 -0.210704 6.35612 0.389574L 7.23227 0.871614ZM 7.98318 0.590324C 8.30661 0.590324 8.51918 0.595042 8.65565 0.636383C 8.7189 0.6528 8.69007 0.655994 8.69011 0.64336C 8.6767 0.639852 8.67987 0.582962 8.67217 0.630594L 9.67217 0.630594C 9.67217 0.397739 9.60529 0.174754 9.44986 -0.00685918C 9.30175 -0.179915 9.11151 -0.2704 8.94557 -0.320667C 8.63617 -0.414393 8.25425 -0.409676 7.98318 -0.409676L 7.98318 0.590324ZM 8.67217 0.630594C 8.67217 1.06072 8.65015 3.69615 8.65014 6.75977L 9.65014 6.75977C 9.65014 3.70033 9.67216 1.0649 9.67217 0.630594L 8.67217 0.630594ZM 2.402 0.859995C 2.30109 0.753763 2.09827 0.576314 1.88024 0.439763C 1.66518 0.307193 1.35813 0.162793 1.01913 0.162793L 1.01913 1.16279C 1.08778 1.16279 1.20537 1.19848 1.3555 1.29102C 1.50266 1.37958 1.60557 1.47227 1.67452 1.54613L 2.402 0.859995ZM 1.01913 0.162793C 0.680128 0.162793 0.373082 0.307193 0.158021 0.439763C -0.0600102 0.576314 -0.262832 0.753763 -0.363738 0.859995L 0.363738 1.54613C 0.432687 1.47227 0.535604 1.37958 0.682762 1.29102C 0.832888 1.19848 0.95048 1.16279 1.01913 1.16279L 1.01913 0.162793ZM -0.5 1.20306L -0.5 5.91112L 0.5 5.91112L 0.5 1.20306L -0.5 1.20306ZM 4.89225 0.783574C 4.92915 0.668768 4.98559 0.616555 5.07317 0.577602C 5.18567 0.527565 5.35732 0.5 5.60521 0.5L 5.60521 -0.5C 5.30698 -0.499259 4.9483 -0.454765 4.66679 -0.336104C 4.33707 -0.189458 4.07004 0.073626 3.94021 0.477614L 4.89225 0.783574ZM 5.60521 0.5L 5.60522 0.5L 5.60522 -0.5L 5.60521 -0.5L 5.60521 0.5ZM 5.60522 0.5C 5.88819 0.5 6.04468 0.506198 6.15503 0.547333C 6.20798 0.567072 6.26647 0.593801 6.3114 0.760637L 7.27699 0.500551C 7.15207 0.036793 6.87428 -0.251775 6.50431 -0.389684C 6.19174 -0.506198 5.83866 -0.5 5.60522 -0.5L 5.60522 0.5ZM 8.67217 11.0035L 8.65015 17.9285L 9.65014 17.9317L 9.67216 11.0067L 8.67217 11.0035ZM 9.15014 17.4301L 1.01913 17.4301L 1.01913 18.4301L 9.15014 18.4301L 9.15014 17.4301ZM 1.51489 17.8651L 0.495758 10.0911L -0.495758 10.2211L 0.523372 17.9951L 1.51489 17.8651ZM 0.5 10.1561L 0.5 5.91112L -0.5 5.91112L -0.5 10.1561L 0.5 10.1561ZM 8.92681 10.0332L 8.69095 10.8693L 9.65339 11.1408L 9.88925 10.3047L 8.92681 10.0332ZM 8.65157 6.79748L 8.90946 10.2066L 9.90661 10.1312L 9.64872 6.72205L 8.65157 6.79748Z"/>
<path id="path46_fill" d="M 24.0361 28.7623L 34.4747 29.8955L 36.7641 18.0736L 25.3312 16.8324C 11.9101 15.3753 11.9299 1.29517 11.9299 1.29517L 0 0C 0 0 1.6675 26.3338 24.0361 28.7623Z"/>
<path id="path47_stroke" d="M 34.4747 29.8955L 34.4208 30.3926L 34.8781 30.4423L 34.9656 29.9906L 34.4747 29.8955ZM 24.0361 28.7623L 23.9821 29.2593L 23.9821 29.2593L 24.0361 28.7623ZM 0 0L 0.0539656 -0.497079L -0.536537 -0.561187L -0.499001 0.0315976L 0 0ZM 11.9299 1.29517L 12.4299 1.29588L 12.4305 0.846587L 11.9839 0.798094L 11.9299 1.29517ZM 25.3312 16.8324L 25.2773 17.3294L 25.2773 17.3294L 25.3312 16.8324ZM 36.7641 18.0736L 37.2549 18.1686L 37.3583 17.6351L 36.818 17.5765L 36.7641 18.0736ZM 34.5287 29.3985L 24.09 28.2652L 23.9821 29.2593L 34.4208 30.3926L 34.5287 29.3985ZM 24.09 28.2652C 13.1386 27.0762 7.25109 20.0501 4.08294 13.2591C 2.49306 9.85557 1.60259 6.54479 1.10018 4.0537C 0.849718 2.81341 0.700127 1.79418 0.611588 1.07514C 0.567572 0.718055 0.539554 0.44181 0.522114 0.250846C 0.513491 0.156517 0.50774 0.0860079 0.503994 0.037276C 0.502162 0.0134714 0.50092 -0.00372259 0.500073 -0.0158247C 0.499668 -0.0215989 0.499402 -0.0255362 0.499208 -0.0284492C 0.49912 -0.0297683 0.499068 -0.0305539 0.499025 -0.0312169C 0.499008 -0.03148 0.499002 -0.0315748 0.498994 -0.0317068C 0.498994 -0.0317022 0.499001 -0.0315976 0 0C -0.499001 0.0315976 -0.498981 0.0319031 -0.498955 0.0323088C -0.498938 0.0325778 -0.498905 0.0330843 -0.49887 0.0336219C -0.498809 0.0345602 -0.498704 0.0361735 -0.498579 0.038045C -0.498348 0.0415132 -0.497967 0.0471239 -0.497485 0.0540163C -0.496558 0.0672475 -0.495067 0.0878618 -0.493062 0.113957C -0.489133 0.165025 -0.48279 0.242683 -0.473739 0.341822C -0.455829 0.537793 -0.426178 0.829685 -0.38091 1.1974C -0.29088 1.92799 -0.135443 2.98505 0.119935 4.2515C 0.629193 6.7739 1.55364 10.1983 3.1767 13.6819C 6.43445 20.6649 12.5649 28.0198 23.9821 29.2593L 24.09 28.2652ZM -0.0539656 0.497079L 11.8759 1.79225L 11.9839 0.798094L 0.0539656 -0.497079L -0.0539656 0.497079ZM 11.9299 1.29517C 11.4299 1.29447 11.4299 1.29476 11.4299 1.2951C 11.4299 1.29528 11.4299 1.29568 11.4299 1.29605C 11.4299 1.29663 11.4299 1.29774 11.4299 1.29891C 11.4299 1.30093 11.4299 1.30444 11.4299 1.30846C 11.43 1.31588 11.4301 1.32793 11.4303 1.34258C 11.4307 1.3706 11.4315 1.41429 11.4332 1.46878C 11.4364 1.57512 11.4432 1.73604 11.4564 1.93605C 11.4825 2.33053 11.5364 2.90798 11.6424 3.59444C 11.8534 4.95529 12.2876 6.82625 13.142 8.72324C 14.8701 12.5481 18.3523 16.5776 25.2773 17.3294L 25.3852 16.3353C 18.8891 15.63 15.6705 11.8909 14.0533 8.3115C 13.235 6.50632 12.8353 4.76618 12.6306 3.44147C 12.5288 2.78516 12.4794 2.25122 12.4542 1.87C 12.4417 1.68216 12.4358 1.53915 12.4327 1.43853C 12.4312 1.38954 12.4306 1.35399 12.4302 1.32864C 12.43 1.3166 12.43 1.30844 12.4299 1.30231C 12.4299 1.29956 12.4299 1.29796 12.4299 1.29657C 12.4299 1.29603 12.4299 1.29586 12.4299 1.29559C 12.4299 1.29553 12.4299 1.2956 12.4299 1.29557C 12.4299 1.2957 12.4299 1.29588 11.9299 1.29517ZM 25.2773 17.3294L 36.7101 18.5707L 36.818 17.5765L 25.3852 16.3353L 25.2773 17.3294ZM 36.2732 17.9785L 33.9839 29.8005L 34.9656 29.9906L 37.2549 18.1686L 36.2732 17.9785Z"/>
<path id="path48_fill" d="M 0 0L 11 0L 11 4L 0 4L 0 0Z"/>
<path id="path49_fill" d="M 14.414 9.17482C 13.4222 4.01016 5.32532 0.913025 0.943328 0C -3.56386 15.7771 9.2072 20.8245 15.4672 20.6419C 15.3898 18.6434 15.1769 13.1477 14.414 9.17482Z"/>
<path id="path50_stroke" d="M 0.943328 0L 1.04532 -0.489488L 0.590249 -0.584305L 0.462562 -0.137345L 0.943328 0ZM 14.414 9.17482L 14.905 9.08053L 14.414 9.17482ZM 15.4672 20.6419L 15.4818 21.1416L 15.9864 21.1269L 15.9668 20.6225L 15.4672 20.6419ZM 0.841339 0.489488C 3.00666 0.939941 6.05285 1.91679 8.7027 3.42762C 11.3674 4.94385 13.4702 6.91159 13.9229 9.26912L 14.905 9.08053C 14.3659 6.27339 11.9244 4.11024 9.19725 2.55847C 6.45524 1.00132 3.26198 -0.0269163 1.04532 -0.489488L 0.841339 0.489488ZM 13.9229 9.26912C 14.6801 13.2047 14.8901 18.6628 14.9676 20.6612L 15.9668 20.6225C 15.8894 18.6241 15.6736 13.0907 14.905 9.08053L 13.9229 9.26912ZM 15.4526 20.1421C 12.4325 20.2302 7.81047 19.0478 4.51025 15.9417C 1.24988 12.8731 -0.784177 7.86722 1.42409 0.137345L 0.462562 -0.137345C -1.83636 7.90984 0.261516 13.3162 3.82488 16.6699C 7.34839 19.9861 12.2419 21.2362 15.4818 21.1416L 15.4526 20.1421Z"/>
<path id="path51_fill" d="M 7.54918 6.5902C 7.54918 10.2299 5.85924 13.1804 3.77459 13.1804C 1.68994 13.1804 0 10.2299 0 6.5902C 0 2.95053 1.68994 0 3.77459 0C 5.85924 0 7.54918 2.95053 7.54918 6.5902Z"/>
<path id="path52_stroke_2x" d="M 6.54918 6.5902C 6.54918 8.26786 6.15758 9.73756 5.57589 10.7532C 4.97824 11.7966 4.30437 12.1804 3.77459 12.1804L 3.77459 14.1804C 5.32947 14.1804 6.54289 13.0889 7.31138 11.7472C 8.09582 10.3776 8.54918 8.5522 8.54918 6.5902L 6.54918 6.5902ZM 3.77459 12.1804C 3.24482 12.1804 2.57095 11.7966 1.9733 10.7532C 1.3916 9.73756 1 8.26786 1 6.5902L -1 6.5902C -1 8.5522 -0.546632 10.3776 0.237807 11.7472C 1.00629 13.0889 2.21972 14.1804 3.77459 14.1804L 3.77459 12.1804ZM 1 6.5902C 1 4.91253 1.3916 3.44283 1.9733 2.42723C 2.57095 1.38378 3.24482 1 3.77459 1L 3.77459 -1C 2.21972 -1 1.00629 0.0914882 0.237807 1.43322C -0.546632 2.8028 -1 4.6282 -1 6.5902L 1 6.5902ZM 3.77459 1C 4.30437 1 4.97824 1.38378 5.57589 2.42723C 6.15758 3.44283 6.54918 4.91253 6.54918 6.5902L 8.54918 6.5902C 8.54918 4.6282 8.09582 2.8028 7.31138 1.43322C 6.54289 0.0914882 5.32947 -1 3.77459 -1L 3.77459 1Z"/>
<path id="path53_fill" d="M 7.55195 6.58782C 7.55195 10.2262 5.86139 13.1756 3.77598 13.1756C 1.69056 13.1756 0 10.2262 0 6.58782C 0 2.94947 1.69056 0 3.77598 0C 5.86139 0 7.55195 2.94947 7.55195 6.58782Z"/>
<path id="path54_stroke_2x" d="M 6.55195 6.58782C 6.55195 8.26471 6.16024 9.73371 5.5784 10.7488C 4.98068 11.7917 4.3065 12.1756 3.77598 12.1756L 3.77598 14.1756C 5.33086 14.1756 6.54468 13.0849 7.31358 11.7434C 8.09838 10.3742 8.55195 8.54929 8.55195 6.58782L 6.55195 6.58782ZM 3.77598 12.1756C 3.24545 12.1756 2.57128 11.7917 1.97355 10.7488C 1.39171 9.73371 1 8.26471 1 6.58782L -1 6.58782C -1 8.54929 -0.546425 10.3742 0.238368 11.7434C 1.00727 13.0849 2.22109 14.1756 3.77598 14.1756L 3.77598 12.1756ZM 1 6.58782C 1 4.91093 1.39171 3.44193 1.97355 2.42681C 2.57128 1.38397 3.24545 1 3.77598 1L 3.77598 -1C 2.22109 -1 1.00727 0.0907625 0.238368 1.43225C -0.546425 2.80145 -1 4.62636 -1 6.58782L 1 6.58782ZM 3.77598 1C 4.3065 1 4.98068 1.38397 5.5784 2.42681C 6.16024 3.44193 6.55195 4.91093 6.55195 6.58782L 8.55195 6.58782C 8.55195 4.62636 8.09838 2.80145 7.31358 1.43225C 6.54468 0.0907625 5.33086 -1 3.77598 -1L 3.77598 1Z"/>
<path id="path55_fill" d="M 0 0L 13.7203 0L 13.7203 14.918L 0 14.918L 0 0Z"/>
<path id="path56_stroke_2x" d="M 0 0L 0 -1L -1 -1L -1 0L 0 0ZM 13.7203 0L 14.7203 0L 14.7203 -1L 13.7203 -1L 13.7203 0ZM 13.7203 14.918L 13.7203 15.918L 14.7203 15.918L 14.7203 14.918L 13.7203 14.918ZM 0 14.918L -1 14.918L -1 15.918L 0 15.918L 0 14.918ZM 0 1L 13.7203 1L 13.7203 -1L 0 -1L 0 1ZM 12.7203 0L 12.7203 14.918L 14.7203 14.918L 14.7203 0L 12.7203 0ZM 13.7203 13.918L 0 13.918L 0 15.918L 13.7203 15.918L 13.7203 13.918ZM 1 14.918L 1 0L -1 0L -1 14.918L 1 14.918Z"/>
<path id="path57_fill" d="M 0 14.5C 0 6.49187 6.49187 0 14.5 0C 22.5081 0 29 6.49187 29 14.5L 29 28.5C 29 36.5081 22.5081 43 14.5 43C 6.49187 43 0 36.5081 0 28.5L 0 14.5Z"/>
<path id="path58_stroke_2x" d="M 28 14.5L 28 28.5L 30 28.5L 30 14.5L 28 14.5ZM 1 28.5L 1 14.5L -1 14.5L -1 28.5L 1 28.5ZM 14.5 -1C 5.93959 -1 -1 5.93959 -1 14.5L 1 14.5C 1 7.04416 7.04416 1 14.5 1L 14.5 -1ZM 14.5 1C 21.9558 1 28 7.04416 28 14.5L 30 14.5C 30 5.93959 23.0604 -1 14.5 -1L 14.5 1ZM 28 28.5C 28 35.9558 21.9558 42 14.5 42L 14.5 44C 23.0604 44 30 37.0604 30 28.5L 28 28.5ZM 14.5 42C 7.04416 42 1 35.9558 1 28.5L -1 28.5C -1 37.0604 5.93959 44 14.5 44L 14.5 42Z"/>
<path id="path59_fill" d="M 29.5513 0C 23.2189 10.6557 5.98063 10.1229 0 9.59015C 5.11966 5.7134 3.61727 4.4712 8.97094 4.26228C 12.4464 4.12665 18.9973 3.72951 29.5513 0Z"/>
<path id="path60_stroke" d="M 0 9.59015L -0.30184 9.19153L -1.33421 9.97327L -0.044367 10.0882L 0 9.59015ZM 29.5513 0L 29.9812 0.255436L 30.6865 -0.931432L 29.3848 -0.471431L 29.5513 0ZM 8.97094 4.26228L 8.95145 3.76266L 8.97094 4.26228ZM -0.044367 10.0882C 2.95666 10.3554 8.83135 10.6216 14.7388 9.48165C 20.6417 8.33898 26.7069 5.76506 29.9812 0.255436L 29.1215 -0.255436C 26.0633 4.89066 20.3432 7.37822 14.5487 8.49988C 8.75874 9.62425 3.02397 9.35767 0.044367 9.09212L -0.044367 10.0882ZM 29.3848 -0.471431C 18.8979 3.23949 12.4216 3.62727 8.95145 3.76266L 8.99044 4.7619C 12.4713 4.62604 19.0967 4.21953 29.7179 0.471431L 29.3848 -0.471431ZM 8.95145 3.76266C 7.5909 3.81625 6.61898 3.94218 5.88769 4.15859C 5.13289 4.38842 4.56598 4.73905 4.06747 5.17537C 3.09231 6.03777 2.2005 7.30409 -0.30184 9.19153L 0.30184 9.98876C 2.91916 7.99946 3.83599 6.70631 4.72797 5.92619C 5.16303 5.54125 5.54431 5.29986 6.17352 5.11687C 6.82624 4.92046 7.67415 4.81277 8.99044 4.7619L 8.95145 3.76266Z"/>
<path id="path61_fill" d="M 43.8015 3.65498C 38.3132 12.0617 12.3137 16.9657 0 18.3668C 0 3.65498 9.49913 -3.35065 21.6369 1.55329C 31.3471 5.47645 40.4593 4.58907 43.8015 3.65498Z"/>
<path id="path62_stroke" d="M 0 18.3668L -0.5 18.3668L -0.5 18.9269L 0.0565283 18.8636L 0 18.3668ZM 43.8015 3.65498L 44.2202 3.92832L 44.9465 2.81584L 43.667 3.17344L 43.8015 3.65498ZM 21.6369 1.55329L 21.4496 2.01689L 21.6369 1.55329ZM 0.0565283 18.8636C 6.22572 18.1615 15.8435 16.5781 24.5955 14.1194C 28.9727 12.889 33.1645 11.4286 36.5934 9.75243C 40.0175 8.07762 42.7725 6.14587 44.2202 3.92832L 43.3829 3.38165C 42.0864 5.36747 39.5333 7.20126 36.1541 8.85413C 32.7797 10.5056 28.6729 11.935 24.325 13.1567C 15.6267 15.6019 6.08796 17.171 -0.0565283 17.87L 0.0565283 18.8636ZM 43.667 3.17344C 40.4192 4.08109 31.4213 4.96714 21.8242 1.0897L 21.4496 2.01689C 31.273 5.98575 40.4993 5.09705 43.9361 4.13653L 43.667 3.17344ZM 21.8242 1.0897C 15.6354 -1.41073 10.0294 -0.903811 5.96299 2.20702C 1.90808 5.30903 -0.5 10.9123 -0.5 18.3668L 0.5 18.3668C 0.5 11.1095 2.84148 5.85404 6.57059 3.00126C 10.2882 0.1573 15.5007 -0.386625 21.4496 2.01689L 21.8242 1.0897Z"/>
<path id="path63_stroke" d="M 1.88733 0.269009C 2.0359 0.0362399 1.96764 -0.272897 1.73487 -0.421466C 1.5021 -0.570036 1.19296 -0.501779 1.04439 -0.269009L 1.88733 0.269009ZM 0.85347 5.21772L 0.690937 5.69057L 0.85347 5.21772ZM 4.42505 5.1527C 4.6773 5.04035 4.79072 4.74477 4.67837 4.49252C 4.56601 4.24027 4.27044 4.12685 4.01819 4.23921L 4.42505 5.1527ZM 1.46586 0C 1.04439 -0.269009 1.04433 -0.268903 1.04425 -0.26878C 1.04421 -0.268716 1.04412 -0.268575 1.04404 -0.268447C 1.04391 -0.268252 1.04367 -0.267868 1.04342 -0.267478C 1.043 -0.266817 1.04225 -0.265643 1.04142 -0.264326C 1.03991 -0.261935 1.03741 -0.257984 1.03444 -0.253255C 1.0288 -0.244292 1.01997 -0.230156 1.00917 -0.212685C 0.98821 -0.178766 0.956605 -0.127006 0.918472 -0.0629515C 0.84353 0.0629799 0.736001 0.249027 0.616662 0.470176C 0.380749 0.907766 0.0791716 1.52246 -0.147041 2.15337C -0.370379 2.77865 -0.546032 3.48953 -0.489169 4.12387C -0.45844 4.4372 -0.345757 4.7965 -0.170671 5.059C 0.0135231 5.31356 0.338067 5.56233 0.690937 5.69057L 1.016 4.74488C 0.811646 4.68158 0.737406 4.62364 0.650357 4.48811C 0.554198 4.36052 0.523178 4.24634 0.506838 4.03459C 0.469564 3.61878 0.586316 3.07312 0.794689 2.48974C 1.00019 1.91198 1.26963 1.3659 1.49681 0.944881C 1.60901 0.736724 1.70605 0.569007 1.77778 0.448501C 1.81299 0.389336 1.84025 0.344709 1.85982 0.313046C 1.86929 0.297725 1.87614 0.286771 1.88112 0.278842C 1.88346 0.275125 1.885 0.272679 1.8862 0.270785C 1.88672 0.269959 1.887 0.269518 1.88727 0.2691C 1.88736 0.268951 1.88738 0.268929 1.88743 0.268854C 1.88743 0.268846 1.88741 0.268885 1.88741 0.268881C 1.88737 0.268937 1.88733 0.269009 1.46586 0ZM 0.690937 5.69057C 1.4651 5.95668 2.43772 5.78523 3.13163 5.59968C 3.49223 5.50293 3.82025 5.39003 4.04549 5.30549C 4.16029 5.26234 4.25597 5.22391 4.31895 5.19785C 4.35145 5.18439 4.37814 5.17305 4.39507 5.16577C 4.40401 5.16192 4.41155 5.15864 4.4161 5.15664C 4.41861 5.15554 4.42085 5.15455 4.42212 5.154C 4.42286 5.15367 4.4236 5.15334 4.42397 5.15317C 4.42422 5.15307 4.42449 5.15295 4.42461 5.15289C 4.4247 5.15285 4.42481 5.1528 4.42486 5.15278C 4.42496 5.15274 4.42505 5.1527 4.22162 4.69595C 4.01819 4.23921 4.01827 4.23917 4.01834 4.23914C 4.01835 4.23913 4.01841 4.23911 4.01844 4.2391C 4.01844 4.23909 4.01851 4.23907 4.01849 4.23907C 4.01835 4.23914 4.01831 4.23915 4.01803 4.23928C 4.01724 4.23963 4.01641 4.23999 4.01486 4.24067C 4.01128 4.24224 4.00671 4.24423 3.99976 4.24722C 3.98491 4.25361 3.96466 4.26222 3.93654 4.27385C 3.87829 4.29797 3.798 4.33027 3.69391 4.36933C 3.48133 4.44921 3.19979 4.54665 2.87332 4.63362C 2.19311 4.8155 1.48166 4.90494 1.016 4.74488L 0.690937 5.69057Z"/>
<path id="path64_stroke" d="M 0.295401 -0.403408C 0.0726046 -0.566554 -0.240263 -0.518197 -0.403408 -0.295401C -0.566554 -0.0726046 -0.518197 0.240263 -0.295401 0.403408L 0.295401 -0.403408ZM 13.2821 0.412801C 13.5101 0.256987 13.5686 -0.0541431 13.4128 -0.282127C 13.257 -0.51011 12.9459 -0.568615 12.7179 -0.412801L 13.2821 0.412801ZM -0.295401 0.403408C 0.731489 1.15536 3.1723 2.5 6.30303 2.5L 6.30303 1.5C 3.44673 1.5 1.20875 0.265404 0.295401 -0.403408L -0.295401 0.403408ZM 6.30303 2.5C 9.42607 2.5 12.395 1.0191 13.2821 0.412801L 12.7179 -0.412801C 11.9419 0.117509 9.16701 1.5 6.30303 1.5L 6.30303 2.5Z"/>
<path id="path65_stroke" d="M 2.78686 2.54545L 2.46075 2.16644L 2.28686 2.31605L 2.28686 2.54545L 2.78686 2.54545ZM 11.6348 10.9996L 11.1348 10.9996L 11.1348 12.0451L 11.9487 11.3888L 11.6348 10.9996ZM 0.251041 4.45455L -0.103182 4.10166L -0.248959 4.24799L -0.248959 4.45455L 0.251041 4.45455ZM 5.74531 0.742758L 5.27184 0.582041L 5.24531 0.660209L 5.24531 0.742758L 5.74531 0.742758ZM 8.70376 0.742758L 9.20376 0.742758L 9.20376 0.673015L 9.18468 0.605935L 8.70376 0.742758ZM 11.6622 16L 11.183 15.8572L 11.1758 15.8814L 11.1711 15.9062L 11.6622 16ZM 10.046 24.4612L 10.0309 24.961L 10.4572 24.9739L 10.5372 24.555L 10.046 24.4612ZM 0 24.1567L -0.499812 24.143L -0.513475 24.6414L -0.0151496 24.6565L 0 24.1567ZM 0.251041 15L 0.751041 15.0137L 0.751041 15L 0.251041 15ZM 14.0211 9.07522L 14.0363 8.57545L 13.8513 8.56985L 13.7073 8.68601L 14.0211 9.07522ZM 11.9557 15.0151L 11.557 14.7133L 11.5023 14.7855L 11.4765 14.8723L 11.9557 15.0151ZM 13.4363 13.0592L 13.0471 12.7452L 13.0423 12.7512L 13.0376 12.7574L 13.4363 13.0592ZM 15.4058 10.6178L 15.795 10.9318L 15.901 10.8003L 15.9056 10.6315L 15.4058 10.6178ZM 3.28686 10L 3.28686 2.54545L 2.28686 2.54545L 2.28686 10L 3.28686 10ZM 3.11296 2.92447C 3.21916 2.83246 3.39034 2.7084 3.62073 2.5949C 3.85569 2.47614 4.05273 2.40224 4.26608 2.40909L 4.26608 1.40909C 3.88775 1.41594 3.46844 1.55416 3.17335 1.70056C 2.87368 1.85221 2.6011 2.04633 2.46075 2.16644L 3.11296 2.92447ZM 4.26608 2.40909C 4.47944 2.40224 4.67648 2.47614 4.91144 2.5949C 5.14183 2.7084 5.31301 2.83246 5.4192 2.92447L 6.07142 2.16644C 5.93107 2.04633 5.65848 1.85221 5.35882 1.70056C 5.06373 1.55416 4.64442 1.41594 4.26608 1.40909L 4.26608 2.40909ZM 5.24531 2.54545L 5.24531 10L 6.24531 10L 6.24531 2.54545L 5.24531 2.54545ZM 8.20376 2.54545L 8.20376 10L 9.20376 10L 9.20376 2.54545L 8.20376 2.54545ZM 9.13607 2.79668C 9.18396 2.71426 9.29596 2.61393 9.49971 2.53239C 9.715 2.44326 9.92969 2.40728 10.183 2.40909L 10.183 1.40909C 9.84459 1.4109 9.44294 1.48098 9.12817 1.60397C 8.80187 1.73456 8.4701 1.9524 8.27146 2.29423L 9.13607 2.79668ZM 10.183 2.40909C 10.5778 2.40909 10.8672 2.41336 11.0621 2.46926C 11.1541 2.49312 11.1792 2.54147 11.1642 2.51285C 11.138 2.49633 11.1707 2.47824 11.1622 2.54545L 12.1622 2.54545C 12.1622 2.28142 12.0819 2.03681 11.906 1.84226C 11.74 1.65858 11.5272 1.56234 11.3378 1.50801C 10.978 1.40482 10.5278 1.40909 10.183 1.40909L 10.183 2.40909ZM 11.1622 2.54545C 11.1622 3.05297 11.1348 7.39195 11.1348 10.9996L 12.1348 10.9996C 12.1348 7.3951 12.1622 3.05612 12.1622 2.54545L 11.1622 2.54545ZM 3.14108 4.10166C 3.01906 3.97991 2.77845 3.78027 2.51587 3.62498C 2.25564 3.47311 1.90058 3.31818 1.51895 3.31818L 1.51895 4.31818C 1.64448 4.31818 1.81771 4.37537 2.01182 4.48866C 2.20358 4.59852 2.34334 4.71706 2.43263 4.80743L 3.14108 4.10166ZM 1.51895 3.31818C 1.13732 3.31818 0.782255 3.47311 0.52203 3.62498C 0.259453 3.78027 0.0188368 3.97991 -0.103182 4.10166L 0.605264 4.80743C 0.694563 4.71706 0.83432 4.59852 1.02608 4.48866C 1.22019 4.37537 1.39342 4.31818 1.51895 4.31818L 1.51895 3.31818ZM -0.248959 4.45455L -0.248959 10L 0.751041 10L 0.751041 4.45455L -0.248959 4.45455ZM 6.24531 2.54545C 6.24531 2.08923 6.24531 1.37912 6.24531 0.742758L 5.24531 0.742758C 5.24531 1.37912 5.24531 2.08923 5.24531 2.54545L 6.24531 2.54545ZM 6.21878 0.903474C 6.30811 0.640287 6.55443 0.5 7.22454 0.5L 7.22454 -0.5C 6.54596 -0.5 5.59735 -0.376908 5.27184 0.582041L 6.21878 0.903474ZM 7.22454 0.5C 7.56957 0.5 7.79311 0.505645 7.95944 0.564344C 8.07044 0.60352 8.1618 0.665004 8.22285 0.87958L 9.18468 0.605935C 9.03441 0.0777535 8.70739 -0.232142 8.29223 -0.378655C 7.9324 -0.505645 7.52198 -0.5 7.22454 -0.5L 7.22454 0.5ZM 8.20376 0.742758C 8.20376 1.27273 8.20376 2.15762 8.20376 2.54545L 9.20376 2.54545C 9.20376 2.15762 9.20376 1.27273 9.20376 0.742758L 8.20376 0.742758ZM 11.1711 15.9062L 9.55492 24.3674L 10.5372 24.555L 12.1533 16.0938L 11.1711 15.9062ZM 10.0612 23.9615L 0.0151496 23.6569L -0.0151496 24.6565L 10.0309 24.961L 10.0612 23.9615ZM 0.499812 24.1704L 0.750853 15.0137L -0.248771 14.9863L -0.499812 24.143L 0.499812 24.1704ZM 0.751041 15L 0.751041 10L -0.248959 10L -0.248959 15L 0.751041 15ZM 11.9487 11.3888L 14.335 9.46444L 13.7073 8.68601L 11.3209 10.6104L 11.9487 11.3888ZM 11.4765 14.8723L 11.183 15.8572L 12.1414 16.1428L 12.4348 15.1579L 11.4765 14.8723ZM 13.0376 12.7574L 11.557 14.7133L 12.3543 15.3169L 13.8349 13.3609L 13.0376 12.7574ZM 15.0167 10.3039L 13.0471 12.7452L 13.8254 13.3731L 15.795 10.9318L 15.0167 10.3039ZM 14.0211 9.07522C 14.006 9.57499 14.0057 9.57499 14.0055 9.57498C 14.0054 9.57498 14.0051 9.57497 14.005 9.57496C 14.0051 9.57497 14.0037 9.57492 14.004 9.57493C 14.0043 9.57494 14.0016 9.57484 14.0022 9.57486C 14.0027 9.57488 13.9981 9.57469 13.999 9.57473C 13.9995 9.57475 13.9934 9.57442 13.9945 9.57448C 13.9938 9.57445 13.9915 9.57421 13.9924 9.57433C 14 9.57506 14.0008 9.57502 14.0134 9.57749C 14.0509 9.58407 14.0794 9.59009 14.137 9.61339C 14.2798 9.66687 14.4141 9.73661 14.5859 9.93783L 15.33 9.26983C 15.0402 8.95685 14.7061 8.76229 14.4959 8.68002C 14.3771 8.63543 14.2578 8.60571 14.1918 8.59353C 14.1527 8.58662 14.1127 8.58143 14.0925 8.57936C 14.0795 8.57809 14.0652 8.57697 14.0587 8.57654C 14.054 8.57625 14.0483 8.57594 14.046 8.57583C 14.0441 8.57575 14.0417 8.57564 14.0408 8.57561C 14.04 8.57558 14.0388 8.57554 14.0384 8.57552C 14.0381 8.57551 14.0375 8.57549 14.0373 8.57549C 14.0372 8.57548 14.0369 8.57547 14.0368 8.57547C 14.0365 8.57546 14.0363 8.57545 14.0211 9.07522ZM 14.5859 9.93783C 14.7688 10.1323 14.8306 10.2848 14.8744 10.4415C 14.8942 10.5073 14.8993 10.5436 14.9037 10.5854C 14.9055 10.6007 14.9056 10.6043 14.9058 10.6133C 14.9059 10.6151 14.9059 10.6148 14.9059 10.6137C 14.9059 10.6144 14.9059 10.6099 14.9059 10.6102C 14.9059 10.611 14.9059 10.6071 14.9059 10.6075C 14.9059 10.608 14.906 10.6056 14.906 10.6059C 14.906 10.6062 14.906 10.6049 14.906 10.605C 14.906 10.6049 14.906 10.6047 14.906 10.6046C 14.906 10.6044 14.906 10.6041 15.4058 10.6178C 15.9056 10.6315 15.9057 10.6313 15.9057 10.6311C 15.9057 10.631 15.9057 10.6307 15.9057 10.6306C 15.9057 10.6304 15.9057 10.6299 15.9057 10.6296C 15.9057 10.6292 15.9057 10.6282 15.9057 10.6274C 15.9058 10.6265 15.9058 10.6243 15.9058 10.6225C 15.9058 10.6203 15.9059 10.615 15.9059 10.6105C 15.9058 10.604 15.9056 10.5902 15.9052 10.5774C 15.9044 10.557 15.902 10.5176 15.8979 10.478C 15.8904 10.41 15.8701 10.2892 15.8356 10.1658C 15.7708 9.9441 15.6087 9.58955 15.33 9.26983L 14.5859 9.93783Z"/>
<path id="path66_fill" fill-rule="evenodd" d="M 4.63906 34C 10.8668 46.9002 23.0308 68.1113 25.6391 72.6347L 25.6391 125C 25.6391 129.418 29.2208 133 33.6391 133L 62.6391 133C 65.6569 133 68.2844 131.329 69.6469 128.862L 70.0486 134L 83.4017 134C 83.9358 106.667 83.6154 72.576 83.1391 64.5C 82.3979 51.9332 67.5374 51.9864 63.9238 51.9993C 63.8193 51.9997 63.7242 52 63.6391 52L 63.6439 52.0625C 63.3148 52.0212 62.9794 52 62.6391 52L 33.6391 52C 33.2084 52 32.7857 52.034 32.3735 52.0995C 30.7958 49.7087 22.6198 37.1649 19.639 29.5C 12.639 11.5 15.639 0 15.639 0L 0.639035 0C 0.639035 0 -2.36092 19.5 4.63906 34Z"/>
<path id="path67_stroke" d="M 25.6391 72.6347L 26.1391 72.6347L 26.1391 72.5009L 26.0722 72.3849L 25.6391 72.6347ZM 4.63906 34L 4.18879 34.2174L 4.18879 34.2174L 4.63906 34ZM 69.6469 128.862L 70.1454 128.823L 70.0155 127.16L 69.2092 128.62L 69.6469 128.862ZM 70.0486 134L 69.5501 134.039L 69.5861 134.5L 70.0486 134.5L 70.0486 134ZM 83.4017 134L 83.4017 134.5L 83.892 134.5L 83.9016 134.01L 83.4017 134ZM 83.1391 64.5L 82.6399 64.5294L 82.6399 64.5294L 83.1391 64.5ZM 63.9238 51.9993L 63.9256 52.4993L 63.9256 52.4993L 63.9238 51.9993ZM 63.6391 52L 63.6391 51.5L 63.0985 51.5L 63.1406 52.0389L 63.6391 52ZM 63.6439 52.0625L 63.5818 52.5586L 64.1902 52.6349L 64.1424 52.0236L 63.6439 52.0625ZM 32.3735 52.0995L 31.9562 52.3749L 32.1337 52.6439L 32.452 52.5933L 32.3735 52.0995ZM 15.639 0L 16.1228 0.12621L 16.2862 -0.5L 15.639 -0.5L 15.639 0ZM 0.639035 0L 0.639035 -0.5L 0.210074 -0.5L 0.144848 -0.0760275L 0.639035 0ZM 26.0722 72.3849C 23.4642 67.862 11.309 46.667 5.08934 33.7826L 4.18879 34.2174C 10.4245 47.1334 22.5973 68.3605 25.2059 72.8845L 26.0722 72.3849ZM 26.1391 125L 26.1391 72.6347L 25.1391 72.6347L 25.1391 125L 26.1391 125ZM 33.6391 132.5C 29.4969 132.5 26.1391 129.142 26.1391 125L 25.1391 125C 25.1391 129.694 28.9446 133.5 33.6391 133.5L 33.6391 132.5ZM 62.6391 132.5L 33.6391 132.5L 33.6391 133.5L 62.6391 133.5L 62.6391 132.5ZM 69.2092 128.62C 67.9312 130.934 65.4676 132.5 62.6391 132.5L 62.6391 133.5C 65.8462 133.5 68.6377 131.724 70.0846 129.104L 69.2092 128.62ZM 69.1485 128.901L 69.5501 134.039L 70.547 133.961L 70.1454 128.823L 69.1485 128.901ZM 70.0486 134.5L 83.4017 134.5L 83.4017 133.5L 70.0486 133.5L 70.0486 134.5ZM 83.9016 134.01C 84.4358 106.669 84.1151 72.559 83.6382 64.4706L 82.6399 64.5294C 83.1157 72.5931 83.4358 106.664 82.9018 133.99L 83.9016 134.01ZM 83.6382 64.4706C 83.4466 61.2228 82.3384 58.7623 80.7072 56.9126C 79.0945 55.094 76.9493 53.8569 74.7801 53.0626C 70.4353 51.4838 65.7288 51.4928 63.922 51.4993L 63.9256 52.4993C 65.7324 52.4928 70.2629 52.4688 74.437 54.0019C 76.5273 54.7635 78.4621 55.8687 79.9571 57.574C 81.4337 59.2484 82.4609 61.4938 82.6399 64.5294L 83.6382 64.4706ZM 63.9221 51.4993C 63.8175 51.4997 63.7233 51.5 63.6391 51.5L 63.6391 52.5C 63.725 52.5 63.821 52.4997 63.9256 52.4993L 63.9221 51.4993ZM 63.1406 52.0389L 63.1455 52.1014L 64.1424 52.0236L 64.1375 51.9611L 63.1406 52.0389ZM 62.6391 52.5C 62.9636 52.4997 63.2679 52.519 63.5818 52.5586L 63.7061 51.5664C 63.3617 51.5234 62.9952 51.5003 62.6391 51.5L 62.6391 52.5ZM 33.6391 52.5L 62.6391 52.5L 62.6391 51.5L 33.6391 51.5L 33.6391 52.5ZM 32.452 52.5933C 32.8451 52.5305 33.2285 52.4996 33.6391 52.5L 33.6391 51.5C 33.1884 51.5004 32.7264 51.5376 32.2951 51.6057L 32.452 52.5933ZM 19.173 29.6812C 22.1771 37.406 30.3871 49.9972 31.9562 52.3749L 32.7909 51.8242C 31.2044 49.4202 23.0626 36.9238 20.1051 29.3188L 19.173 29.6812ZM 15.639 0C 15.1552 -0.12621 15.1552 -0.125941 15.1551 -0.125629C 15.155 -0.125466 15.1549 -0.125109 15.1549 -0.124783C 15.1547 -0.124282 15.1545 -0.123304 15.1542 -0.122302C 15.1538 -0.120598 15.153 -0.117589 15.1521 -0.114185C 15.1506 -0.10798 15.148 -0.0977618 15.145 -0.0853822C 15.1392 -0.061839 15.1303 -0.0247175 15.1196 0.0220966C 15.0988 0.11326 15.0683 0.253331 15.0331 0.433349C 14.9637 0.788326 14.8711 1.32446 14.7836 2.01541C 14.6104 3.38665 14.4517 5.42411 14.5142 8.01219C 14.6406 13.1647 15.6549 20.6251 19.173 29.6812L 20.1051 29.3188C 16.6232 20.3749 15.6375 13.0853 15.5139 7.98781C 15.4514 5.45089 15.6052 3.48835 15.7757 2.14084C 15.8601 1.47242 15.9472 0.969486 16.0145 0.625245C 16.0476 0.455654 16.0748 0.331076 16.0945 0.244993C 16.104 0.203184 16.1111 0.173533 16.1163 0.15246C 16.1187 0.142531 16.1204 0.13598 16.1216 0.130992C 16.1222 0.1288 16.1225 0.127608 16.1228 0.126508C 16.1229 0.126109 16.1229 0.126035 16.1229 0.125835C 16.1229 0.12581 16.1229 0.125904 16.1229 0.125892C 16.1229 0.126029 16.1228 0.12621 15.639 0ZM 0.639035 0.5L 15.639 0.5L 15.639 -0.5L 0.639035 -0.5L 0.639035 0.5ZM 5.08934 33.7826C 1.61912 26.6102 0.637913 18.2161 0.513968 11.5532C 0.451473 8.22758 0.606615 5.36246 0.777926 3.31512C 0.86328 2.29422 0.952127 1.48523 1.02014 0.926633C 1.05397 0.648629 1.08225 0.436148 1.10233 0.291103C 1.11228 0.219202 1.12 0.165473 1.12538 0.12876C 1.12802 0.110708 1.12998 0.0975346 1.13135 0.0884117C 1.13201 0.0840006 1.13248 0.0809069 1.13281 0.0786889C 1.13297 0.0776547 1.13307 0.0769899 1.13315 0.0764711C 1.13319 0.076249 1.1332 0.0761383 1.13322 0.076027C 1.13323 0.0759901 1.13322 0.0760275 0.639035 0C 0.144848 -0.0760275 0.14482 -0.0758413 0.14478 -0.075581C 0.144751 -0.0753951 0.1447 -0.0750603 0.144643 -0.0746888C 0.144541 -0.0740203 0.144371 -0.0729056 0.144168 -0.0715711C 0.143785 -0.0690518 0.14318 -0.0650511 0.142427 -0.0600341C 0.140966 -0.050301 0.138731 -0.0352839 0.135909 -0.0159979C 0.130355 0.021966 0.122087 0.0795044 0.111777 0.153965C 0.0913327 0.301644 0.0619888 0.52227 0.0274664 0.805789C -0.0412395 1.37024 -0.132077 2.19797 -0.218593 3.23176C -0.391024 5.29379 -0.548371 8.20992 -0.485857 11.5718C -0.359783 18.2839 0.659022 26.8898 4.18879 34.2174L 5.08934 33.7826Z"/>
<path id="path68_stroke" d="M 0 -0.5C -0.276142 -0.5 -0.5 -0.276142 -0.5 0C -0.5 0.276142 -0.276142 0.5 0 0.5L 0 -0.5ZM 54 0.5C 54.2761 0.5 54.5 0.276142 54.5 0C 54.5 -0.276142 54.2761 -0.5 54 -0.5L 54 0.5ZM 0 0.5L 54 0.5L 54 -0.5L 0 -0.5L 0 0.5Z"/>
<path id="path69_stroke" d="M 0 0L 217 0L 217 -1L 0 -1L 0 0Z"/>
</defs>
</svg>
