<svg width="136" height="153" viewBox="0 0 136 153" version="1.1" xmlns="http://www.w3.org/2000/svg" xmlns:xlink="http://www.w3.org/1999/xlink">
<title>&#208;&#159;&#209;&#128;&#208;&#184;&#208;&#178;&#208;&#181;&#209;&#130;&#209;&#129;&#209;&#130;&#208;&#178;&#208;&#184;&#208;&#181;</title>
<desc>Created using Figma</desc>
<g id="Canvas" transform="translate(-61 448)">
<g id="&#208;&#159;&#209;&#128;&#208;&#184;&#208;&#178;&#208;&#181;&#209;&#130;&#209;&#129;&#209;&#130;&#208;&#178;&#208;&#184;&#208;&#181;">
<g id="Mask Group">
<mask id="mask0_alpha" mask-type="alpha">
<g id="Rectangle 4">
<use xlink:href="#path0_fill" transform="translate(79 -454)" fill="#C4C4C4"/>
</g>
</mask>
<g id="&#208;&#167;&#208;&#181;&#208;&#187;&#208;&#190;&#208;&#178;&#208;&#181;&#208;&#186;" mask="url(#mask0_alpha)">
<g id="&#208;&#155;&#208;&#184;&#209;&#134;&#208;&#190;">
<g id="Vector 22">
<use xlink:href="#path1_fill" transform="matrix(0.999221 0.0394581 -0.0387098 0.99925 131.927 -425.738)" fill="#6FBCFF"/>
<use xlink:href="#path2_stroke" transform="matrix(0.999221 0.0394581 -0.0387098 0.99925 131.927 -425.738)" fill="#0093D3"/>
</g>
<g id="Ellipse 3">
<use xlink:href="#path3_fill" transform="matrix(0.965484 -0.260463 0.255842 0.966719 109.876 -405.394)" fill="#FFFFFF"/>
<mask id="mask1_outline_ins">
<use xlink:href="#path3_fill" fill="white" transform="matrix(0.965484 -0.260463 0.255842 0.966719 109.876 -405.394)"/>
</mask>
<g mask="url(#mask1_outline_ins)">
<use xlink:href="#path4_stroke_2x" transform="matrix(0.965484 -0.260463 0.255842 0.966719 109.876 -405.394)" fill="#0093D3"/>
</g>
</g>
<g id="Ellipse 3">
<use xlink:href="#path5_fill" transform="matrix(-0.945319 -0.326148 -0.320595 0.947216 149.563 -405.277)" fill="#FFFFFF"/>
<mask id="mask2_outline_ins">
<use xlink:href="#path5_fill" fill="white" transform="matrix(-0.945319 -0.326148 -0.320595 0.947216 149.563 -405.277)"/>
</mask>
<g mask="url(#mask2_outline_ins)">
<use xlink:href="#path6_stroke_2x" transform="matrix(-0.945319 -0.326148 -0.320595 0.947216 149.563 -405.277)" fill="#0093D3"/>
</g>
</g>
<g id="&#208;&#147;&#208;&#190;&#208;&#187;&#208;&#190;&#208;&#178;&#208;&#176;">
<use xlink:href="#path7_fill" transform="translate(115.332 -424.672)" fill="#FFFFFF"/>
<mask id="mask3_outline_ins">
<use xlink:href="#path7_fill" fill="white" transform="translate(115.332 -424.672)"/>
</mask>
<g mask="url(#mask3_outline_ins)">
<use xlink:href="#path8_stroke_2x" transform="translate(115.332 -424.672)" fill="#0093D3"/>
</g>
</g>
<g id="Vector 27">
<use xlink:href="#path9_fill" transform="translate(123.248 -421.475)" fill="#6FBCFF"/>
<use xlink:href="#path10_stroke" transform="translate(123.248 -421.475)" fill="#0093D3"/>
</g>
<g id="Vector 21">
<use xlink:href="#path11_fill" transform="matrix(0.997332 -0.0729926 0.0716133 0.997432 109 -426.803)" fill="#6FBCFF"/>
<use xlink:href="#path12_stroke" transform="matrix(0.997332 -0.0729926 0.0716133 0.997432 109 -426.803)" fill="#0093D3"/>
</g>
<g id="Ellipse 4">
<use xlink:href="#path13_fill" transform="translate(119.554 -404.426)" fill="#0093D3"/>
</g>
<g id="Ellipse 4">
<use xlink:href="#path13_fill" transform="translate(137.496 -404.426)" fill="#0093D3"/>
</g>
<g id="Vector 23">
<use xlink:href="#path14_stroke" transform="translate(127.997 -401.229)" fill="#0093D3"/>
</g>
<g id="Vector 24">
<use xlink:href="#path15_stroke" transform="translate(120.609 -388.443)" fill="#0093D3"/>
</g>
<g id="Rectangle 7">
<use xlink:href="#path16_fill" transform="translate(122.72 -379.918)" fill="#FFFFFF"/>
<mask id="mask4_outline_ins">
<use xlink:href="#path16_fill" fill="white" transform="translate(122.72 -379.918)"/>
</mask>
<g mask="url(#mask4_outline_ins)">
<use xlink:href="#path17_stroke_2x" transform="translate(122.72 -379.918)" fill="#0093D3"/>
</g>
</g>
</g>
<g id="Vector 25">
<use xlink:href="#path18_stroke" transform="matrix(0.999585 -0.0288137 0.0288137 0.999585 82 -446.556)" fill="#0093D3"/>
</g>
<g id="Union">
<use xlink:href="#path19_fill" transform="translate(79.3609 -423)" fill="#A2DFFE"/>
<use xlink:href="#path20_stroke" transform="translate(79.3609 -423)" fill="#0093D3"/>
</g>
<g id="Line 2">
<use xlink:href="#path21_stroke" transform="matrix(6.12323e-17 1 -1 6.12323e-17 149.5 -349.5)" fill="#0093D3"/>
</g>
</g>
</g>
<g id="Line">
<use xlink:href="#path22_stroke" transform="translate(61 -295)" fill="#0093D3"/>
</g>
</g>
</g>
<defs>
<path id="path0_fill" d="M 0 0L 92 0L 92 159L 0 159L 0 0Z"/>
<path id="path1_fill" d="M 16.2835 9.31285C 16.2835 4.05383 5.788 0.913025 1.04809 0C -3.82724 15.7771 9.51222 19.8954 16.2835 19.7128C 16.6221 18.6172 16.2835 14.5719 16.2835 9.31285Z"/>
<path id="path2_stroke" d="M 1.04809 0L 1.14267 -0.490974L 0.702675 -0.575728L 0.570383 -0.14762L 1.04809 0ZM 16.2835 19.7128L 16.297 20.2126L 16.6554 20.203L 16.7612 19.8604L 16.2835 19.7128ZM 0.953521 0.490974C 3.30641 0.94389 7.05291 1.93872 10.2254 3.47673C 11.8095 4.2426 13.201 5.11108 14.2176 6.12265C 15.2196 7.11536 15.7835 8.17758 15.7835 9.31285L 16.7835 9.31285C 16.7835 7.81861 16.0355 6.5161 14.9214 5.41228C 13.822 4.32731 12.2934 3.36746 10.6611 2.57662C 7.40089 1.00122 3.52969 -0.0308653 1.14267 -0.490974L 0.953521 0.490974ZM 15.7835 9.31285C 15.7836 11.9515 15.8684 14.2834 15.9106 16.0858C 15.9317 16.9862 15.9422 17.7466 15.9265 18.3523C 15.9105 18.9717 15.8676 19.3654 15.8058 19.5652L 16.7612 19.8604C 16.8688 19.5125 16.9104 18.9896 16.9262 18.378C 16.9422 17.7527 16.9315 16.9677 16.9103 16.0624C 16.8679 14.2535 16.7834 11.9333 16.7835 9.31285L 15.7835 9.31285ZM 16.27 19.213C 12.9631 19.3022 8.06859 18.3346 4.61856 15.4573C 1.22298 12.6254 -0.860959 7.87143 1.52581 0.14762L 0.570383 -0.14762C -1.91818 7.90563 0.22994 13.0994 3.97808 16.2253C 7.67178 19.3058 12.8326 20.3061 16.297 20.2126L 16.27 19.213Z"/>
<path id="path3_fill" d="M 7.54918 6.5902C 7.54918 10.2299 5.85924 13.1804 3.77459 13.1804C 1.68994 13.1804 0 10.2299 0 6.5902C 0 2.95053 1.68994 0 3.77459 0C 5.85924 0 7.54918 2.95053 7.54918 6.5902Z"/>
<path id="path4_stroke_2x" d="M 6.54918 6.5902C 6.54918 8.26786 6.15758 9.73756 5.57589 10.7532C 4.97824 11.7966 4.30437 12.1804 3.77459 12.1804L 3.77459 14.1804C 5.32947 14.1804 6.54289 13.0889 7.31138 11.7472C 8.09582 10.3776 8.54918 8.5522 8.54918 6.5902L 6.54918 6.5902ZM 3.77459 12.1804C 3.24482 12.1804 2.57095 11.7966 1.9733 10.7532C 1.3916 9.73756 1 8.26786 1 6.5902L -1 6.5902C -1 8.5522 -0.546632 10.3776 0.237807 11.7472C 1.00629 13.0889 2.21972 14.1804 3.77459 14.1804L 3.77459 12.1804ZM 1 6.5902C 1 4.91253 1.3916 3.44283 1.9733 2.42723C 2.57095 1.38378 3.24482 1 3.77459 1L 3.77459 -1C 2.21972 -1 1.00629 0.0914882 0.237807 1.43322C -0.546632 2.8028 -1 4.6282 -1 6.5902L 1 6.5902ZM 3.77459 1C 4.30437 1 4.97824 1.38378 5.57589 2.42723C 6.15758 3.44283 6.54918 4.91253 6.54918 6.5902L 8.54918 6.5902C 8.54918 4.6282 8.09582 2.8028 7.31138 1.43322C 6.54289 0.0914882 5.32947 -1 3.77459 -1L 3.77459 1Z"/>
<path id="path5_fill" d="M 7.55195 6.58782C 7.55195 10.2262 5.86139 13.1756 3.77598 13.1756C 1.69056 13.1756 0 10.2262 0 6.58782C 0 2.94947 1.69056 0 3.77598 0C 5.86139 0 7.55195 2.94947 7.55195 6.58782Z"/>
<path id="path6_stroke_2x" d="M 6.55195 6.58782C 6.55195 8.26471 6.16024 9.73371 5.5784 10.7488C 4.98068 11.7917 4.3065 12.1756 3.77598 12.1756L 3.77598 14.1756C 5.33086 14.1756 6.54468 13.0849 7.31358 11.7434C 8.09838 10.3742 8.55195 8.54929 8.55195 6.58782L 6.55195 6.58782ZM 3.77598 12.1756C 3.24545 12.1756 2.57128 11.7917 1.97355 10.7488C 1.39171 9.73371 1 8.26471 1 6.58782L -1 6.58782C -1 8.54929 -0.546425 10.3742 0.238368 11.7434C 1.00727 13.0849 2.22109 14.1756 3.77598 14.1756L 3.77598 12.1756ZM 1 6.58782C 1 4.91093 1.39171 3.44193 1.97355 2.42681C 2.57128 1.38397 3.24545 1 3.77598 1L 3.77598 -1C 2.22109 -1 1.00727 0.0907625 0.238368 1.43225C -0.546425 2.80145 -1 4.62636 -1 6.58782L 1 6.58782ZM 3.77598 1C 4.3065 1 4.98068 1.38397 5.5784 2.42681C 6.16024 3.44193 6.55195 4.91093 6.55195 6.58782L 8.55195 6.58782C 8.55195 4.62636 8.09838 2.80145 7.31358 1.43225C 6.54468 0.0907625 5.33086 -1 3.77598 -1L 3.77598 1Z"/>
<path id="path7_fill" d="M 0 9C 0 4.02944 4.02944 0 9 0L 19.4959 0C 24.4665 0 28.4959 4.02944 28.4959 9L 28.4959 36.8197C 28.4959 41.7902 24.4665 45.8197 19.4959 45.8197L 9 45.8197C 4.02944 45.8197 0 41.7902 0 36.8197L 0 9Z"/>
<path id="path8_stroke_2x" d="M 9 1L 19.4959 1L 19.4959 -1L 9 -1L 9 1ZM 27.4959 9L 27.4959 36.8197L 29.4959 36.8197L 29.4959 9L 27.4959 9ZM 19.4959 44.8197L 9 44.8197L 9 46.8197L 19.4959 46.8197L 19.4959 44.8197ZM 1 36.8197L 1 9L -1 9L -1 36.8197L 1 36.8197ZM 9 -1C 3.47715 -1 -1 3.47715 -1 9L 1 9C 1 4.58172 4.58172 1 9 1L 9 -1ZM 19.4959 1C 23.9142 1 27.4959 4.58172 27.4959 9L 29.4959 9C 29.4959 3.47715 25.0188 -1 19.4959 -1L 19.4959 1ZM 27.4959 36.8197C 27.4959 41.2379 23.9142 44.8197 19.4959 44.8197L 19.4959 46.8197C 25.0188 46.8197 29.4959 42.3425 29.4959 36.8197L 27.4959 36.8197ZM 9 44.8197C 4.58172 44.8197 1 41.2379 1 36.8197L -1 36.8197C -1 42.3425 3.47715 46.8197 9 46.8197L 9 44.8197Z"/>
<path id="path9_fill" d="M 29.5513 0C 23.2189 10.6557 5.98063 10.1229 0 9.59015C 5.11966 5.7134 3.61727 4.4712 8.97094 4.26228C 12.4464 4.12665 18.9973 3.72951 29.5513 0Z"/>
<path id="path10_stroke" d="M 0 9.59015L -0.30184 9.19153L -1.33421 9.97327L -0.044367 10.0882L 0 9.59015ZM 29.5513 0L 29.9812 0.255436L 30.6865 -0.931432L 29.3848 -0.471431L 29.5513 0ZM 8.97094 4.26228L 8.95145 3.76266L 8.97094 4.26228ZM -0.044367 10.0882C 2.95666 10.3554 8.83135 10.6216 14.7388 9.48165C 20.6417 8.33898 26.7069 5.76506 29.9812 0.255436L 29.1215 -0.255436C 26.0633 4.89066 20.3432 7.37822 14.5487 8.49988C 8.75874 9.62425 3.02397 9.35767 0.044367 9.09212L -0.044367 10.0882ZM 29.3848 -0.471431C 18.8979 3.23949 12.4216 3.62727 8.95145 3.76266L 8.99044 4.7619C 12.4713 4.62604 19.0967 4.21953 29.7179 0.471431L 29.3848 -0.471431ZM 8.95145 3.76266C 7.5909 3.81625 6.61898 3.94218 5.88769 4.15859C 5.13289 4.38842 4.56598 4.73905 4.06747 5.17537C 3.09231 6.03777 2.2005 7.30409 -0.30184 9.19153L 0.30184 9.98876C 2.91916 7.99946 3.83599 6.70631 4.72797 5.92619C 5.16303 5.54125 5.54431 5.29986 6.17352 5.11687C 6.82624 4.92046 7.67415 4.81277 8.99044 4.7619L 8.95145 3.76266Z"/>
<path id="path11_fill" d="M 43.8015 3.65498C 38.3132 12.0617 12.3137 16.9657 0 18.3668C 0 3.65498 9.49913 -3.35065 21.6369 1.55329C 31.3471 5.47645 40.4593 4.58907 43.8015 3.65498Z"/>
<path id="path12_stroke" d="M 0 18.3668L -0.5 18.3668L -0.5 18.9269L 0.0565283 18.8636L 0 18.3668ZM 43.8015 3.65498L 44.2202 3.92832L 44.9465 2.81584L 43.667 3.17344L 43.8015 3.65498ZM 21.6369 1.55329L 21.4496 2.01689L 21.6369 1.55329ZM 0.0565283 18.8636C 6.22572 18.1615 15.8435 16.5781 24.5955 14.1194C 28.9727 12.889 33.1645 11.4286 36.5934 9.75243C 40.0175 8.07762 42.7725 6.14587 44.2202 3.92832L 43.3829 3.38165C 42.0864 5.36747 39.5333 7.20126 36.1541 8.85413C 32.7797 10.5056 28.6729 11.935 24.325 13.1567C 15.6267 15.6019 6.08796 17.171 -0.0565283 17.87L 0.0565283 18.8636ZM 43.667 3.17344C 40.4192 4.08109 31.4213 4.96714 21.8242 1.0897L 21.4496 2.01689C 31.273 5.98575 40.4993 5.09705 43.9361 4.13653L 43.667 3.17344ZM 21.8242 1.0897C 15.6354 -1.41073 10.0294 -0.903811 5.96299 2.20702C 1.90808 5.30903 -0.5 10.9123 -0.5 18.3668L 0.5 18.3668C 0.5 11.1095 2.84148 5.85404 6.57059 3.00126C 10.2882 0.1573 15.5007 -0.386625 21.4496 2.01689L 21.8242 1.0897Z"/>
<path id="path13_fill" d="M 3.2283 1.59836C 3.2283 2.48111 2.50562 3.19672 1.61415 3.19672C 0.722679 3.19672 0 2.48111 0 1.59836C 0 0.71561 0.722679 0 1.61415 0C 2.50562 0 3.2283 0.71561 3.2283 1.59836Z"/>
<path id="path14_stroke" d="M 1.88733 0.269009C 2.0359 0.0362399 1.96764 -0.272897 1.73487 -0.421466C 1.5021 -0.570036 1.19296 -0.501779 1.04439 -0.269009L 1.88733 0.269009ZM 0.85347 5.21772L 0.690937 5.69057L 0.85347 5.21772ZM 4.42505 5.1527C 4.6773 5.04035 4.79072 4.74477 4.67837 4.49252C 4.56601 4.24027 4.27044 4.12685 4.01819 4.23921L 4.42505 5.1527ZM 1.46586 0C 1.04439 -0.269009 1.04433 -0.268903 1.04425 -0.26878C 1.04421 -0.268716 1.04412 -0.268575 1.04404 -0.268447C 1.04391 -0.268252 1.04367 -0.267868 1.04342 -0.267478C 1.043 -0.266817 1.04225 -0.265643 1.04142 -0.264326C 1.03991 -0.261935 1.03741 -0.257984 1.03444 -0.253255C 1.0288 -0.244292 1.01997 -0.230156 1.00917 -0.212685C 0.98821 -0.178766 0.956605 -0.127006 0.918472 -0.0629515C 0.84353 0.0629799 0.736001 0.249027 0.616662 0.470176C 0.380749 0.907766 0.0791716 1.52246 -0.147041 2.15337C -0.370379 2.77865 -0.546032 3.48953 -0.489169 4.12387C -0.45844 4.4372 -0.345757 4.7965 -0.170671 5.059C 0.0135231 5.31356 0.338067 5.56233 0.690937 5.69057L 1.016 4.74488C 0.811646 4.68158 0.737406 4.62364 0.650357 4.48811C 0.554198 4.36052 0.523178 4.24634 0.506838 4.03459C 0.469564 3.61878 0.586316 3.07312 0.794689 2.48974C 1.00019 1.91198 1.26963 1.3659 1.49681 0.944881C 1.60901 0.736724 1.70605 0.569007 1.77778 0.448501C 1.81299 0.389336 1.84025 0.344709 1.85982 0.313046C 1.86929 0.297725 1.87614 0.286771 1.88112 0.278842C 1.88346 0.275125 1.885 0.272679 1.8862 0.270785C 1.88672 0.269959 1.887 0.269518 1.88727 0.2691C 1.88736 0.268951 1.88738 0.268929 1.88743 0.268854C 1.88743 0.268846 1.88741 0.268885 1.88741 0.268881C 1.88737 0.268937 1.88733 0.269009 1.46586 0ZM 0.690937 5.69057C 1.4651 5.95668 2.43772 5.78523 3.13163 5.59968C 3.49223 5.50293 3.82025 5.39003 4.04549 5.30549C 4.16029 5.26234 4.25597 5.22391 4.31895 5.19785C 4.35145 5.18439 4.37814 5.17305 4.39507 5.16577C 4.40401 5.16192 4.41155 5.15864 4.4161 5.15664C 4.41861 5.15554 4.42085 5.15455 4.42212 5.154C 4.42286 5.15367 4.4236 5.15334 4.42397 5.15317C 4.42422 5.15307 4.42449 5.15295 4.42461 5.15289C 4.4247 5.15285 4.42481 5.1528 4.42486 5.15278C 4.42496 5.15274 4.42505 5.1527 4.22162 4.69595C 4.01819 4.23921 4.01827 4.23917 4.01834 4.23914C 4.01835 4.23913 4.01841 4.23911 4.01844 4.2391C 4.01844 4.23909 4.01851 4.23907 4.01849 4.23907C 4.01835 4.23914 4.01831 4.23915 4.01803 4.23928C 4.01724 4.23963 4.01641 4.23999 4.01486 4.24067C 4.01128 4.24224 4.00671 4.24423 3.99976 4.24722C 3.98491 4.25361 3.96466 4.26222 3.93654 4.27385C 3.87829 4.29797 3.798 4.33027 3.69391 4.36933C 3.48133 4.44921 3.19979 4.54665 2.87332 4.63362C 2.19311 4.8155 1.48166 4.90494 1.016 4.74488L 0.690937 5.69057Z"/>
<path id="path15_stroke" d="M -0.292464 0.405543C 0.99605 1.33478 4.50892 3.16393 8.44324 3.16393L 8.44324 2.16393C 4.77865 2.16393 1.46656 0.441179 0.292464 -0.405543L -0.292464 0.405543ZM 8.44324 3.16393C 12.3535 3.16393 15.51 1.70681 16.638 0.947578L 16.0796 0.117996C 15.0968 0.779534 12.1319 2.16393 8.44324 2.16393L 8.44324 3.16393Z"/>
<path id="path16_fill" d="M 0 0L 13.7203 0L 13.7203 14.918L 0 14.918L 0 0Z"/>
<path id="path17_stroke_2x" d="M 0 0L 0 -1L -1 -1L -1 0L 0 0ZM 13.7203 0L 14.7203 0L 14.7203 -1L 13.7203 -1L 13.7203 0ZM 13.7203 14.918L 13.7203 15.918L 14.7203 15.918L 14.7203 14.918L 13.7203 14.918ZM 0 14.918L -1 14.918L -1 15.918L 0 15.918L 0 14.918ZM 0 1L 13.7203 1L 13.7203 -1L 0 -1L 0 1ZM 12.7203 0L 12.7203 14.918L 14.7203 14.918L 14.7203 0L 12.7203 0ZM 13.7203 13.918L 0 13.918L 0 15.918L 13.7203 15.918L 13.7203 13.918ZM 1 14.918L 1 0L -1 0L -1 14.918L 1 14.918Z"/>
<path id="path18_stroke" d="M 2.78686 2.54545L 2.46075 2.16644L 2.28686 2.31605L 2.28686 2.54545L 2.78686 2.54545ZM 11.6348 10.9996L 11.1348 10.9996L 11.1348 12.0451L 11.9487 11.3888L 11.6348 10.9996ZM 0.251041 4.45455L -0.103182 4.10166L -0.248959 4.24799L -0.248959 4.45455L 0.251041 4.45455ZM 5.74531 0.742758L 5.27184 0.582041L 5.24531 0.660209L 5.24531 0.742758L 5.74531 0.742758ZM 8.70376 0.742758L 9.20376 0.742758L 9.20376 0.673015L 9.18468 0.605935L 8.70376 0.742758ZM 11.6622 16L 11.183 15.8572L 11.1758 15.8814L 11.1711 15.9062L 11.6622 16ZM 10.046 24.4612L 10.0309 24.961L 10.4572 24.9739L 10.5372 24.555L 10.046 24.4612ZM 0 24.1567L -0.499812 24.143L -0.513475 24.6414L -0.0151496 24.6565L 0 24.1567ZM 0.251041 15L 0.751041 15.0137L 0.751041 15L 0.251041 15ZM 14.0211 9.07522L 14.0363 8.57545L 13.8513 8.56985L 13.7073 8.68601L 14.0211 9.07522ZM 11.9557 15.0151L 11.557 14.7133L 11.5023 14.7855L 11.4765 14.8723L 11.9557 15.0151ZM 13.4363 13.0592L 13.0471 12.7452L 13.0423 12.7512L 13.0376 12.7574L 13.4363 13.0592ZM 15.4058 10.6178L 15.795 10.9318L 15.901 10.8003L 15.9056 10.6315L 15.4058 10.6178ZM 3.28686 10L 3.28686 2.54545L 2.28686 2.54545L 2.28686 10L 3.28686 10ZM 3.11296 2.92447C 3.21916 2.83246 3.39034 2.7084 3.62073 2.5949C 3.85569 2.47614 4.05273 2.40224 4.26608 2.40909L 4.26608 1.40909C 3.88775 1.41594 3.46844 1.55416 3.17335 1.70056C 2.87368 1.85221 2.6011 2.04633 2.46075 2.16644L 3.11296 2.92447ZM 4.26608 2.40909C 4.47944 2.40224 4.67648 2.47614 4.91144 2.5949C 5.14183 2.7084 5.31301 2.83246 5.4192 2.92447L 6.07142 2.16644C 5.93107 2.04633 5.65848 1.85221 5.35882 1.70056C 5.06373 1.55416 4.64442 1.41594 4.26608 1.40909L 4.26608 2.40909ZM 5.24531 2.54545L 5.24531 10L 6.24531 10L 6.24531 2.54545L 5.24531 2.54545ZM 8.20376 2.54545L 8.20376 10L 9.20376 10L 9.20376 2.54545L 8.20376 2.54545ZM 9.13607 2.79668C 9.18396 2.71426 9.29596 2.61393 9.49971 2.53239C 9.715 2.44326 9.92969 2.40728 10.183 2.40909L 10.183 1.40909C 9.84459 1.4109 9.44294 1.48098 9.12817 1.60397C 8.80187 1.73456 8.4701 1.9524 8.27146 2.29423L 9.13607 2.79668ZM 10.183 2.40909C 10.5778 2.40909 10.8672 2.41336 11.0621 2.46926C 11.1541 2.49312 11.1792 2.54147 11.1642 2.51285C 11.138 2.49633 11.1707 2.47824 11.1622 2.54545L 12.1622 2.54545C 12.1622 2.28142 12.0819 2.03681 11.906 1.84226C 11.74 1.65858 11.5272 1.56234 11.3378 1.50801C 10.978 1.40482 10.5278 1.40909 10.183 1.40909L 10.183 2.40909ZM 11.1622 2.54545C 11.1622 3.05297 11.1348 7.39195 11.1348 10.9996L 12.1348 10.9996C 12.1348 7.3951 12.1622 3.05612 12.1622 2.54545L 11.1622 2.54545ZM 3.14108 4.10166C 3.01906 3.97991 2.77845 3.78027 2.51587 3.62498C 2.25564 3.47311 1.90058 3.31818 1.51895 3.31818L 1.51895 4.31818C 1.64448 4.31818 1.81771 4.37537 2.01182 4.48866C 2.20358 4.59852 2.34334 4.71706 2.43263 4.80743L 3.14108 4.10166ZM 1.51895 3.31818C 1.13732 3.31818 0.782255 3.47311 0.52203 3.62498C 0.259453 3.78027 0.0188368 3.97991 -0.103182 4.10166L 0.605264 4.80743C 0.694563 4.71706 0.83432 4.59852 1.02608 4.48866C 1.22019 4.37537 1.39342 4.31818 1.51895 4.31818L 1.51895 3.31818ZM -0.248959 4.45455L -0.248959 10L 0.751041 10L 0.751041 4.45455L -0.248959 4.45455ZM 6.24531 2.54545C 6.24531 2.08923 6.24531 1.37912 6.24531 0.742758L 5.24531 0.742758C 5.24531 1.37912 5.24531 2.08923 5.24531 2.54545L 6.24531 2.54545ZM 6.21878 0.903474C 6.30811 0.640287 6.55443 0.5 7.22454 0.5L 7.22454 -0.5C 6.54596 -0.5 5.59735 -0.376908 5.27184 0.582041L 6.21878 0.903474ZM 7.22454 0.5C 7.56957 0.5 7.79311 0.505645 7.95944 0.564344C 8.07044 0.60352 8.1618 0.665004 8.22285 0.87958L 9.18468 0.605935C 9.03441 0.0777535 8.70739 -0.232142 8.29223 -0.378655C 7.9324 -0.505645 7.52198 -0.5 7.22454 -0.5L 7.22454 0.5ZM 8.20376 0.742758C 8.20376 1.27273 8.20376 2.15762 8.20376 2.54545L 9.20376 2.54545C 9.20376 2.15762 9.20376 1.27273 9.20376 0.742758L 8.20376 0.742758ZM 11.1711 15.9062L 9.55492 24.3674L 10.5372 24.555L 12.1533 16.0938L 11.1711 15.9062ZM 10.0612 23.9615L 0.0151496 23.6569L -0.0151496 24.6565L 10.0309 24.961L 10.0612 23.9615ZM 0.499812 24.1704L 0.750853 15.0137L -0.248771 14.9863L -0.499812 24.143L 0.499812 24.1704ZM 0.751041 15L 0.751041 10L -0.248959 10L -0.248959 15L 0.751041 15ZM 11.9487 11.3888L 14.335 9.46444L 13.7073 8.68601L 11.3209 10.6104L 11.9487 11.3888ZM 11.4765 14.8723L 11.183 15.8572L 12.1414 16.1428L 12.4348 15.1579L 11.4765 14.8723ZM 13.0376 12.7574L 11.557 14.7133L 12.3543 15.3169L 13.8349 13.3609L 13.0376 12.7574ZM 15.0167 10.3039L 13.0471 12.7452L 13.8254 13.3731L 15.795 10.9318L 15.0167 10.3039ZM 14.0211 9.07522C 14.006 9.57499 14.0057 9.57499 14.0055 9.57498C 14.0054 9.57498 14.0051 9.57497 14.005 9.57496C 14.0051 9.57497 14.0037 9.57492 14.004 9.57493C 14.0043 9.57494 14.0016 9.57484 14.0022 9.57486C 14.0027 9.57488 13.9981 9.57469 13.999 9.57473C 13.9995 9.57475 13.9934 9.57442 13.9945 9.57448C 13.9938 9.57445 13.9915 9.57421 13.9924 9.57433C 14 9.57506 14.0008 9.57502 14.0134 9.57749C 14.0509 9.58407 14.0794 9.59009 14.137 9.61339C 14.2798 9.66687 14.4141 9.73661 14.5859 9.93783L 15.33 9.26983C 15.0402 8.95685 14.7061 8.76229 14.4959 8.68002C 14.3771 8.63543 14.2578 8.60571 14.1918 8.59353C 14.1527 8.58662 14.1127 8.58143 14.0925 8.57936C 14.0795 8.57809 14.0652 8.57697 14.0587 8.57654C 14.054 8.57625 14.0483 8.57594 14.046 8.57583C 14.0441 8.57575 14.0417 8.57564 14.0408 8.57561C 14.04 8.57558 14.0388 8.57554 14.0384 8.57552C 14.0381 8.57551 14.0375 8.57549 14.0373 8.57549C 14.0372 8.57548 14.0369 8.57547 14.0368 8.57547C 14.0365 8.57546 14.0363 8.57545 14.0211 9.07522ZM 14.5859 9.93783C 14.7688 10.1323 14.8306 10.2848 14.8744 10.4415C 14.8942 10.5073 14.8993 10.5436 14.9037 10.5854C 14.9055 10.6007 14.9056 10.6043 14.9058 10.6133C 14.9059 10.6151 14.9059 10.6148 14.9059 10.6137C 14.9059 10.6144 14.9059 10.6099 14.9059 10.6102C 14.9059 10.611 14.9059 10.6071 14.9059 10.6075C 14.9059 10.608 14.906 10.6056 14.906 10.6059C 14.906 10.6062 14.906 10.6049 14.906 10.605C 14.906 10.6049 14.906 10.6047 14.906 10.6046C 14.906 10.6044 14.906 10.6041 15.4058 10.6178C 15.9056 10.6315 15.9057 10.6313 15.9057 10.6311C 15.9057 10.631 15.9057 10.6307 15.9057 10.6306C 15.9057 10.6304 15.9057 10.6299 15.9057 10.6296C 15.9057 10.6292 15.9057 10.6282 15.9057 10.6274C 15.9058 10.6265 15.9058 10.6243 15.9058 10.6225C 15.9058 10.6203 15.9059 10.615 15.9059 10.6105C 15.9058 10.604 15.9056 10.5902 15.9052 10.5774C 15.9044 10.557 15.902 10.5176 15.8979 10.478C 15.8904 10.41 15.8701 10.2892 15.8356 10.1658C 15.7708 9.9441 15.6087 9.58955 15.33 9.26983L 14.5859 9.93783Z"/>
<path id="path19_fill" fill-rule="evenodd" d="M 4.63907 34C 10.8668 46.9002 23.0308 68.1113 25.6391 72.6347L 25.6391 125C 25.6391 129.418 29.2208 133 33.6391 133L 62.6391 133C 65.6569 133 68.2844 131.329 69.6469 128.862L 70.0486 134L 83.4017 134C 83.9358 106.667 83.6154 72.576 83.1391 64.5C 82.3979 51.9332 67.5374 51.9864 63.9238 51.9993C 63.8193 51.9997 63.7242 52 63.6391 52L 63.644 52.0625C 63.3148 52.0212 62.9794 52 62.6391 52L 33.6391 52C 33.2084 52 32.7858 52.034 32.3736 52.0995C 30.7958 49.7087 22.6198 37.1649 19.639 29.5C 12.639 11.5 15.639 0 15.639 0L 0.639037 0C 0.639037 0 -2.36092 19.5 4.63907 34Z"/>
<path id="path20_stroke" d="M 25.6391 72.6347L 26.1391 72.6347L 26.1391 72.5009L 26.0722 72.3849L 25.6391 72.6347ZM 4.63907 34L 4.18879 34.2174L 4.63907 34ZM 69.6469 128.862L 70.1454 128.823L 70.0155 127.16L 69.2093 128.62L 69.6469 128.862ZM 70.0486 134L 69.5501 134.039L 69.5861 134.5L 70.0486 134.5L 70.0486 134ZM 83.4017 134L 83.4017 134.5L 83.892 134.5L 83.9016 134.01L 83.4017 134ZM 83.1391 64.5L 82.6399 64.5294L 82.6399 64.5294L 83.1391 64.5ZM 63.9238 51.9993L 63.9256 52.4993L 63.9256 52.4993L 63.9238 51.9993ZM 63.6391 52L 63.6391 51.5L 63.0985 51.5L 63.1406 52.0389L 63.6391 52ZM 63.644 52.0625L 63.5818 52.5586L 64.1902 52.6349L 64.1424 52.0236L 63.644 52.0625ZM 32.3736 52.0995L 31.9562 52.3749L 32.1337 52.6439L 32.452 52.5933L 32.3736 52.0995ZM 15.639 0L 16.1229 0.126211L 16.2862 -0.5L 15.639 -0.5L 15.639 0ZM 0.639037 0L 0.639037 -0.5L 0.210077 -0.5L 0.144851 -0.0760276L 0.639037 0ZM 26.0722 72.3849C 23.4642 67.862 11.309 46.667 5.08934 33.7826L 4.18879 34.2174C 10.4245 47.1334 22.5973 68.3605 25.2059 72.8845L 26.0722 72.3849ZM 26.1391 125L 26.1391 72.6347L 25.1391 72.6347L 25.1391 125L 26.1391 125ZM 33.6391 132.5C 29.4969 132.5 26.1391 129.142 26.1391 125L 25.1391 125C 25.1391 129.694 28.9446 133.5 33.6391 133.5L 33.6391 132.5ZM 62.6391 132.5L 33.6391 132.5L 33.6391 133.5L 62.6391 133.5L 62.6391 132.5ZM 69.2093 128.62C 67.9312 130.934 65.4676 132.5 62.6391 132.5L 62.6391 133.5C 65.8462 133.5 68.6377 131.724 70.0846 129.104L 69.2093 128.62ZM 69.1485 128.901L 69.5501 134.039L 70.5471 133.961L 70.1454 128.823L 69.1485 128.901ZM 70.0486 134.5L 83.4017 134.5L 83.4017 133.5L 70.0486 133.5L 70.0486 134.5ZM 83.9016 134.01C 84.4358 106.669 84.1151 72.559 83.6382 64.4706L 82.6399 64.5294C 83.1157 72.5931 83.4358 106.664 82.9018 133.99L 83.9016 134.01ZM 83.6382 64.4706C 83.4466 61.2228 82.3384 58.7623 80.7072 56.9126C 79.0945 55.094 76.9493 53.8569 74.7801 53.0626C 70.4353 51.4838 65.7288 51.4928 63.922 51.4993L 63.9256 52.4993C 65.7324 52.4928 70.2629 52.4688 74.437 54.0019C 76.5273 54.7635 78.4621 55.8687 79.9571 57.574C 81.4337 59.2484 82.4609 61.4938 82.6399 64.5294L 83.6382 64.4706ZM 63.9221 51.4993C 63.8175 51.4997 63.7233 51.5 63.6391 51.5L 63.6391 52.5C 63.725 52.5 63.821 52.4997 63.9256 52.4993L 63.9221 51.4993ZM 63.1406 52.0389L 63.1455 52.1014L 64.1424 52.0236L 64.1376 51.9611L 63.1406 52.0389ZM 62.6391 52.5C 62.9636 52.4997 63.2679 52.519 63.5818 52.5586L 63.7061 51.5664C 63.3617 51.5234 62.9952 51.5003 62.6391 51.5L 62.6391 52.5ZM 33.6391 52.5L 62.6391 52.5L 62.6391 51.5L 33.6391 51.5L 33.6391 52.5ZM 32.452 52.5933C 32.8451 52.5305 33.2285 52.4996 33.6391 52.5L 33.6391 51.5C 33.1884 51.5004 32.7264 51.5376 32.2951 51.6057L 32.452 52.5933ZM 19.173 29.6812C 22.1771 37.406 30.3871 49.9972 31.9562 52.3749L 32.7909 51.8242C 31.2044 49.4202 23.0626 36.9238 20.105 29.3188L 19.173 29.6812ZM 15.639 0C 15.1552 -0.126211 15.1552 -0.125942 15.1551 -0.125629C 15.155 -0.125466 15.155 -0.125109 15.1549 -0.124784C 15.1547 -0.124282 15.1545 -0.123305 15.1542 -0.122302C 15.1538 -0.120599 15.153 -0.11759 15.1522 -0.114185C 15.1506 -0.107981 15.148 -0.0977624 15.145 -0.0853828C 15.1392 -0.0618396 15.1304 -0.0247181 15.1196 0.0220961C 15.0988 0.11326 15.0683 0.25333 15.0331 0.433348C 14.9637 0.788326 14.8711 1.32446 14.7836 2.01541C 14.6104 3.38665 14.4517 5.42411 14.5142 8.01219C 14.6406 13.1647 15.6549 20.6251 19.173 29.6812L 20.105 29.3188C 16.6231 20.3749 15.6375 13.0853 15.5139 7.98781C 15.4514 5.45089 15.6052 3.48835 15.7757 2.14084C 15.8601 1.47242 15.9472 0.969487 16.0145 0.625245C 16.0476 0.455654 16.0748 0.331076 16.0945 0.244994C 16.104 0.203185 16.1111 0.173534 16.1163 0.15246C 16.1187 0.142532 16.1204 0.13598 16.1216 0.130993C 16.1222 0.128801 16.1225 0.127608 16.1228 0.126509C 16.1229 0.12611 16.1229 0.126036 16.123 0.125836C 16.123 0.125811 16.1229 0.125905 16.1229 0.125892C 16.1229 0.12603 16.1229 0.126211 15.639 0ZM 0.639037 0.5L 15.639 0.5L 15.639 -0.5L 0.639037 -0.5L 0.639037 0.5ZM 5.08934 33.7826C 1.61912 26.6102 0.637912 18.2161 0.513968 11.5532C 0.451473 8.22758 0.606616 5.36246 0.777928 3.31512C 0.863282 2.29422 0.952129 1.48523 1.02014 0.926633C 1.05398 0.648629 1.08225 0.436149 1.10233 0.291104C 1.11228 0.219202 1.12001 0.165473 1.12538 0.128761C 1.12802 0.110708 1.12998 0.0975348 1.13135 0.0884119C 1.13201 0.0840008 1.13248 0.0809071 1.13282 0.0786891C 1.13297 0.0776548 1.13308 0.0769901 1.13316 0.0764713C 1.13319 0.0762492 1.13321 0.0761384 1.13322 0.0760272C 1.13323 0.0759903 1.13322 0.0760276 0.639037 0C 0.144851 -0.0760276 0.144823 -0.0758415 0.144783 -0.0755812C 0.144754 -0.0753953 0.144703 -0.0750605 0.144646 -0.0746889C 0.144544 -0.0740205 0.144374 -0.0729058 0.144171 -0.0715713C 0.143788 -0.069052 0.143182 -0.0650513 0.142429 -0.0600343C 0.140968 -0.0503012 0.138733 -0.0352841 0.135911 -0.0159981C 0.130358 0.0219658 0.12209 0.0795042 0.111779 0.153965C 0.0913352 0.301644 0.0619913 0.52227 0.0274687 0.805788C -0.0412374 1.37024 -0.132075 2.19797 -0.218592 3.23176C -0.391023 5.29379 -0.548371 8.20992 -0.485857 11.5718C -0.359784 18.2839 0.659021 26.8898 4.18879 34.2174L 5.08934 33.7826Z"/>
<path id="path21_stroke" d="M 0 -0.5C -0.276142 -0.5 -0.5 -0.276142 -0.5 0C -0.5 0.276142 -0.276142 0.5 0 0.5L 0 -0.5ZM 54 0.5C 54.2761 0.5 54.5 0.276142 54.5 0C 54.5 -0.276142 54.2761 -0.5 54 -0.5L 54 0.5ZM 0 0.5L 54 0.5L 54 -0.5L 0 -0.5L 0 0.5Z"/>
<path id="path22_stroke" d="M 0 0L 136 0L 136 -1L 0 -1L 0 0Z"/>
</defs>
</svg>
